<svg width="68" height="67" viewBox="0 0 68 67" fill="none" xmlns="http://www.w3.org/2000/svg">
<path d="M61.693 11.1667V9.77085C61.693 5.91835 58.5663 2.79169 54.7138 2.79169C50.8613 2.79169 47.7347 5.91835 47.7347 9.77085V11.1667C46.1992 11.1667 44.943 12.4229 44.943 13.9584V25.125C44.943 26.6604 46.1992 27.9167 47.7347 27.9167H61.693C63.2284 27.9167 64.4847 26.6604 64.4847 25.125V13.9584C64.4847 12.4229 63.2284 11.1667 61.693 11.1667ZM59.4597 11.1667H49.968V9.77085C49.968 7.14669 52.0897 5.02502 54.7138 5.02502C57.338 5.02502 59.4597 7.14669 59.4597 9.77085V11.1667ZM53.0947 33.5C53.2063 34.4213 53.318 35.3425 53.318 36.2917C53.318 42.0984 51.0847 47.3746 47.4555 51.3388C46.7297 49.0775 44.6638 47.4584 42.1513 47.4584H39.3597V39.0834C39.3597 37.5479 38.1034 36.2917 36.568 36.2917H19.818V30.7084H25.4013C26.9367 30.7084 28.193 29.4521 28.193 27.9167V22.3334H33.7763C36.8472 22.3334 39.3597 19.8209 39.3597 16.75V9.65919C36.7076 8.82169 33.9159 8.37502 30.9847 8.37502C15.5747 8.37502 3.06799 20.8817 3.06799 36.2917C3.06799 51.7017 15.5747 64.2084 30.9847 64.2084C46.3947 64.2084 58.9013 51.7017 58.9013 36.2917C58.9013 35.3425 58.8455 34.4213 58.7617 33.5H53.0947ZM28.193 58.4296C17.1659 57.0617 8.65133 47.6817 8.65133 36.2917C8.65133 34.5609 8.87466 32.9138 9.23758 31.2946L22.6097 44.6667V47.4584C22.6097 50.5292 25.1222 53.0417 28.193 53.0417V58.4296Z" fill="#54F4FC"/>
</svg>
