<svg width="68" height="67" viewBox="0 0 68 67" fill="none" xmlns="http://www.w3.org/2000/svg">
<g clip-path="url(#clip0_2014_11)">
<path d="M51.3787 14.5159L32.2839 27.8862C26.6779 23.871 18.9271 23.6068 12.9586 27.786C5.38928 33.0861 3.54511 43.5449 8.8452 51.1142C14.1453 58.6835 24.6041 60.5277 32.1734 55.2276C38.1419 51.0484 40.5446 43.6747 38.6889 37.0334L39.4893 36.473L47.2653 37.8441L48.6365 30.0681L56.4125 31.4392L59.0907 15.7956L51.3787 14.5159ZM27.3697 48.3672C23.5965 51.0092 18.3476 50.0837 15.7056 46.3105C13.0636 42.5373 13.9891 37.2884 17.7623 34.6464C21.5355 32.0044 26.7844 32.9299 29.4264 36.7031C32.0684 40.4763 31.1429 45.7252 27.3697 48.3672Z" fill="#54F4FC"/>
</g>
<defs>
<clipPath id="clip0_2014_11">
<rect width="67" height="67" fill="white" transform="translate(0.5)"/>
</clipPath>
</defs>
</svg>
