<svg width="71" height="80" viewBox="0 0 71 80" fill="none" xmlns="http://www.w3.org/2000/svg">
<path d="M49.2083 49.875C49.2083 57.7084 39.4167 63.5834 39.4167 69.4584H31.5833C31.5833 63.5834 21.7917 57.7084 21.7917 49.875C21.7917 42.3159 27.9408 36.1667 35.5 36.1667C43.0592 36.1667 49.2083 42.3159 49.2083 49.875ZM39.4167 73.375H31.5833V79.25H39.4167V73.375ZM62.9167 47.9167C62.9167 54.4967 60.6058 60.4892 56.7283 65.2284L62.29 70.79C67.5383 64.6409 70.75 56.6509 70.75 47.9167C70.75 37.185 65.9325 27.5892 58.3733 21.1267L52.8117 26.6884C58.9608 31.7017 62.9167 39.3784 62.9167 47.9167ZM51.1667 16.5834L35.5 0.916687V12.6667C16.0342 12.6667 0.25 28.4509 0.25 47.9167C0.25 56.6509 3.46167 64.6409 8.71 70.79L14.2717 65.2284C10.3942 60.4892 8.08333 54.4967 8.08333 47.9167C8.08333 32.7984 20.3817 20.5 35.5 20.5V32.25L51.1667 16.5834Z" fill="#54F4FC" fill-opacity="0.87"/>
</svg>
