<svg width="53" height="52" viewBox="0 0 53 52" fill="none" xmlns="http://www.w3.org/2000/svg">
<path d="M26.43 23.5897C30.3148 23.5897 33.4508 20.4538 33.4508 16.569C33.4508 12.6842 30.3148 9.54823 26.43 9.54823C22.5452 9.54823 19.4092 12.6842 19.4092 16.569C19.4092 20.4538 22.5452 23.5897 26.43 23.5897ZM26.43 25.93C22.1239 25.93 18.0987 27.1001 14.6585 29.1361C13.231 29.9552 12.3885 31.5232 12.3885 33.1614V37.6313H40.4715V33.1614C40.4715 31.5232 39.629 29.9786 38.2015 29.1361C34.7613 27.1001 30.7361 25.93 26.43 25.93ZM48.0305 16.92L52.36 15.118C49.5049 8.3079 44.0521 2.83171 37.242 0L35.44 4.32947C41.1034 6.71652 45.6435 11.2566 48.0305 16.92ZM17.42 4.32947L15.618 0C8.8079 2.85511 3.35511 8.3079 0.5 15.118L4.82947 16.92C7.21652 11.2566 11.7566 6.71652 17.42 4.32947ZM4.82947 34.94L0.5 36.742C3.35511 43.5521 8.8079 49.0283 15.618 51.86L17.42 47.5305C11.7566 45.1435 7.21652 40.6034 4.82947 34.94ZM35.44 47.5305L37.242 51.86C44.0521 49.0049 49.5283 43.5521 52.36 36.742L48.0305 34.94C45.6435 40.6034 41.1034 45.1435 35.44 47.5305Z" fill="#49D4DB"/>
</svg>
