<svg width="46" height="59" viewBox="0 0 46 59" fill="none" xmlns="http://www.w3.org/2000/svg">
<path d="M39.8166 19.8396L37.0249 19.8448L37.0146 14.2615C37.0004 6.55649 30.7355 0.314715 23.0305 0.328942C15.3255 0.343168 9.08374 6.60804 9.09796 14.313L9.10827 19.8963L6.31661 19.9015C3.24578 19.9072 0.737926 22.4243 0.743596 25.4951L0.795141 53.4118C0.800811 56.4826 3.31795 58.9904 6.38877 58.9848L39.8887 58.9229C42.9595 58.9172 45.4674 56.4001 45.4617 53.3293L45.4102 25.4127C45.4045 22.3418 42.8874 19.834 39.8166 19.8396ZM23.113 44.9955C20.0421 45.0012 17.525 42.4933 17.5193 39.4225C17.5137 36.3517 20.0215 33.8346 23.0924 33.8289C26.1632 33.8232 28.6803 36.3311 28.686 39.4019C28.6917 42.4727 26.1838 44.9899 23.113 44.9955ZM31.7207 19.8546L14.4124 19.8866L14.4021 14.3032C14.3933 9.52949 18.2666 5.64191 23.0403 5.6331C27.814 5.62429 31.7016 9.49753 31.7104 14.2713L31.7207 19.8546Z" fill="#54F4FC"/>
</svg>
