<?xml version="1.0" encoding="UTF-8"?> <svg xmlns="http://www.w3.org/2000/svg" version="1.2" viewBox="0 0 150 44" width="150" height="44"><title>Logo Cyberlys White</title><defs><linearGradient id="g1" x2="1" gradientUnits="userSpaceOnUse" gradientTransform="matrix(14.063,0,0,12.121,.404,6.061)"><stop offset=".34" stop-color="#ad79ef"></stop><stop offset="1" stop-color="#5db1ff"></stop></linearGradient><linearGradient id="g2" x2="1" gradientUnits="userSpaceOnUse" gradientTransform="matrix(14.459,0,0,14.116,0,26.787)"><stop offset=".34" stop-color="#ad79ef"></stop><stop offset="1" stop-color="#5db1ff"></stop></linearGradient><linearGradient id="g3" x2="1" gradientUnits="userSpaceOnUse" gradientTransform="matrix(9.647,0,0,7.918,2.81,11.963)"><stop offset=".34" stop-color="#ad79ef"></stop><stop offset="1" stop-color="#5db1ff"></stop></linearGradient><linearGradient id="g4" x2="1" gradientUnits="userSpaceOnUse" gradientTransform="matrix(12.457,0,0,13.309,0,19.178)"><stop offset=".34" stop-color="#ad79ef"></stop><stop offset="1" stop-color="#5db1ff"></stop></linearGradient></defs><style> .s0 { fill: #ffffff } .s1 { fill: url(#g1) } .s2 { fill: url(#g2) } .s3 { fill: url(#g3) } .s4 { fill: url(#g4) } </style><path class="s0" d="m26.8 16.8q0-4.2 1.2-6.7 1.2-2.6 3.5-3.8 2.3-1.2 5.8-1.2 1 0 1.9 0c0.6 0.1 1.1 0.1 1.6 0.2 0.6 0.1 1 0.1 1.6 0.3 0.4 0.1 1 0.2 1.5 0.4l-0.9 3.4c-0.6-0.1-1.2-0.3-1.8-0.4q-0.9-0.1-1.8-0.2c-0.5 0-1.1 0-1.7 0q-1.6-0.1-2.9 0.4-1.2 0.4-2 1.3c-0.5 0.7-0.9 1.5-1.2 2.5-0.2 1-0.4 2.3-0.4 3.8q0 2.1 0.4 3.4 0.4 1.4 1.2 2.3c0.5 0.6 1.2 1 2 1.3 0.8 0.2 1.7 0.4 2.7 0.4 1 0 2.1-0.1 3.1-0.2q1.6-0.2 2.9-0.6l0.8 3.4q-0.8 0.3-1.6 0.5c-0.5 0.1-1.1 0.2-1.7 0.3q-0.9 0.1-1.9 0.2c-0.7 0-1.4 0.1-2.2 0.1q-2.5 0-4.4-0.6-1.9-0.7-3.1-1.9c-0.9-0.9-1.5-2-1.9-3.4-0.5-1.4-0.7-3.2-0.7-5.2z"></path><path class="s0" d="m49.6 34.2l2.2-6.6h-0.8l-6.3-17.1 4.6-0.1 4.2 13.7 4-13.7h4.3l-7.8 23.9-4.4-0.1z"></path><path class="s0" d="m63.8 27.1v-23h4.2v7.7q1.3-0.9 2.6-1.3 1.3-0.4 2.6-0.4 2.9 0 4.4 2.2c1 1.4 1.6 3.5 1.6 6.3 0 2.2-0.3 4-0.9 5.4q-0.9 2-2.8 3c-1.2 0.6-2.9 0.9-4.8 0.9-1 0-2.1-0.1-3.2-0.2-1.2-0.2-2.4-0.4-3.7-0.6zm4.2-2.6q0.8 0.2 1.4 0.2c0.5 0.1 0.9 0.1 1.3 0.1q1.4 0 2.3-0.5c0.6-0.4 1-1 1.3-1.9q0.4-1.3 0.5-3.5c0-1.3-0.2-2.2-0.4-3-0.2-0.7-0.6-1.3-1-1.7-0.5-0.4-1-0.6-1.7-0.6-0.4 0-0.8 0.1-1.2 0.2-0.4 0.1-0.8 0.2-1.2 0.4q-0.6 0.2-1.3 0.7v9.6z"></path><path class="s0" d="m89.1 27.9q-1.9 0-3.4-0.5-1.5-0.5-2.6-1.5-1-1-1.5-2.6c-0.4-1.1-0.5-2.4-0.5-3.8q0-2.6 0.6-4.4 0.6-1.8 1.7-2.9 1.2-1.1 2.7-1.6 1.5-0.5 3.4-0.5 3.6 0 5.3 1.8 1.6 1.8 1.6 5.9v0.7c0 0.3 0 0.9-0.2 1.5h-7.4c0 0-2.2 0-3.4 0 0 0.1 0 0.1 0 0.3v0.2c0 1 0.1 1.8 0.4 2.3 0.4 0.6 0.8 1 1.5 1.3q1 0.4 2.5 0.4 1 0 2-0.1c0.7-0.1 1.3-0.1 2-0.3 0.7-0.1 1.3-0.2 2-0.4l0.5 3.2q-1 0.3-2.2 0.5-1.1 0.3-2.3 0.4-1.3 0.1-2.7 0.1zm-3.6-10.6q1.1 0 2.1 0c0.7 0 1.3-0.1 2-0.1q0.9-0.1 1.6-0.1c0.4 0 0.8 0 1-0.1q0-1.3-0.3-2.2c-0.3-0.6-0.6-1-1-1.2-0.5-0.3-1-0.4-1.7-0.4-0.5 0-0.9 0-1.3 0.2-0.4 0.1-0.8 0.3-1.1 0.6-0.3 0.4-0.6 0.8-0.9 1.3q-0.3 0.7-0.4 2z"></path><path class="s0" d="m103 10.4v2.1q0.9-0.9 1.6-1.4 0.8-0.5 1.6-0.7c0.6-0.2 1.2-0.3 1.7-0.3 0.4 0 0.8 0.1 1.2 0.1 0.4 0 0.8 0.2 1.2 0.3l-0.7 3.8c-0.4-0.1-0.8-0.2-1.2-0.2q-0.6-0.1-1.1-0.1-0.9 0-1.9 0.4c-0.6 0.2-1.4 0.6-2 1.2v12h-4.3v-17.2h3.9z"></path><path class="s0" d="m116.6 4.1v17.9q0.1 0.9 0.2 1.4c0.2 0.3 0.4 0.6 0.6 0.6q0.4 0.2 0.8 0.2 0.3 0 0.7-0.1 0.4 0 0.8-0.2l0.4 3.3c-0.4 0.2-0.9 0.3-1.4 0.4-0.6 0.2-1.1 0.2-1.8 0.2q-1.4 0.1-2.5-0.5c-0.6-0.3-1.2-0.9-1.5-1.7-0.4-0.8-0.6-1.9-0.6-3.3v-18.2z"></path><path class="s0" d="m123.9 34.2l2.2-6.6h-0.8l-6.4-17.1 4.7-0.1 4.2 13.7 3.9-13.7h4.4l-7.9 23.9c0 0-4.3-0.1-4.3-0.1z"></path><path class="s0" d="m136.5 26.9l0.6-3.1c0.4 0.1 0.8 0.2 1.3 0.3 0.4 0.1 0.9 0.2 1.4 0.3q0.8 0.2 1.6 0.2 0.8 0.1 1.4 0.1 1.5 0 2.3-0.4 0.7-0.5 0.7-1.4c0-0.3-0.1-0.6-0.3-0.9q-0.3-0.3-0.8-0.6c-0.4-0.2-0.9-0.3-1.4-0.5-0.5-0.2-1.2-0.3-1.9-0.5-0.7-0.2-1.4-0.4-1.9-0.7-0.5-0.3-1-0.6-1.4-1q-0.6-0.6-0.8-1.4c-0.2-0.5-0.3-1.1-0.3-1.8q0-2.6 1.7-4c1.1-0.9 2.9-1.4 5.1-1.4q1.1 0 2 0.1c0.6 0.1 1.2 0.2 1.7 0.3 0.6 0.1 1.1 0.3 1.6 0.5l-0.5 3.1c-0.5-0.1-1-0.3-1.5-0.4-0.4-0.1-0.9-0.2-1.5-0.2-0.5-0.1-1.2-0.1-1.8-0.1q-1.4 0-2.1 0.4c-0.5 0.3-0.7 0.8-0.7 1.3q0 0.5 0.3 0.9c0.1 0.2 0.4 0.4 0.7 0.5q0.5 0.3 1.2 0.4 0.7 0.2 1.5 0.4c0.8 0.2 1.5 0.4 2.2 0.7 0.6 0.3 1.1 0.6 1.6 1 0.4 0.3 0.8 0.9 1.1 1.4 0.3 0.6 0.4 1.3 0.4 2.1 0 0.9-0.1 1.5-0.4 2.1q-0.3 0.9-1 1.5c-0.5 0.5-1 0.8-1.6 1.1-0.6 0.3-1.2 0.4-1.9 0.6q-1.1 0.2-2.3 0.2-1.1 0-2.2-0.1-1-0.2-2.1-0.4c-0.7-0.2-1.4-0.4-2-0.6z"></path><path fill-rule="evenodd" class="s1" d="m3.7 5.9l6.4-3.7 3.8-2.1c0.2-0.2 0.6 0 0.6 0.3v3.8c0 0.2-0.2 0.5-0.4 0.6l-12.4 7.3c-0.7-0.7-1.2-1.4-1.3-2.1-0.2-1.5 0.9-2.9 3.3-4.1z"></path><path fill-rule="evenodd" class="s2" d="m0 19.7c-0.1 4.7-0.1 6.2 4.1 8.5q7.9 4.5 9.8 5.6c0.2 0.1 0.6-0.1 0.6-0.4q-0.1-2.8-0.1-3.7c0-0.3-0.1-0.6-0.4-0.7q-4.4-2.6-6.6-3.8c-2.5-1.5-6.6-3.4-7.4-5.5z"></path><path class="s3" d="m2.8 13.2c0 0-0.2 0.3 4 2.7l5.3-3c0.2-0.1 0.4-0.4 0.4-0.7v-3.8c0-0.3-0.4-0.5-0.6-0.3z"></path><path class="s4" d="m7.4 18.1c-2.5-1.4-6.6-3.5-7.4-5.6-0.1 4.8-0.1 6.4 4.1 8.7q5.2 3.1 7.8 4.6c0.2 0.1 0.6-0.1 0.6-0.4v-3.8c0-0.3-0.2-0.6-0.4-0.7q-3-1.8-4.7-2.8z"></path><path id="Combined-Shape" fill-rule="evenodd" class="s0" d="m148.9 34.6c1 0 1.3 0.7 1 1.4-0.3 0.7-2.6 5.1-3.1 6.3-0.3 0.6-0.5 1.1-1.4 1.1h-15c-0.6 0-1.3-0.6-0.9-1.5 0.5-1.1 2.9-6 3.1-6.4 0.3-0.6 0.7-0.9 1.5-0.9 0.9 0 13.9 0 14.8 0zm-13.2 4.5q0.1-0.2 0-0.4l-0.6-2.1c0-0.2-0.1-0.4-0.3-0.4-0.4-0.2-0.8 0-1 0.3l-2.2 4.6c0 0-0.1 0-0.1 0-0.1 0.2-0.1 0.4 0.1 0.6 0.2 0.2 0.7 0.2 0.9-0.2l1.8-3.8c0 0 0 0 0 0q0.1 0 0.1 0l0.3 1.4q0.1 0.1 0.1 0.2 0.1 0.1 0.2 0.1 0 0 0 0c0.2 0.1 0.6 0 0.7-0.3zm0.4 1q0-0.1-0.1-0.2-0.1-0.1-0.3-0.1h-1.5c-0.2 0-0.5-0.1-0.6 0.2-0.1 0.2-0.2 0.5 0.1 0.7q0.1 0.1 0.2 0.1h1.2l0.3 0.7q0 0.1 0.1 0.2c0.2 0.2 0.7 0.2 0.9-0.2q0.1-0.2 0-0.4c0 0-0.3-1-0.3-1zm5.8-2.6c0.1-0.2 0-0.4-0.2-0.6q-0.4-0.4-0.9-0.7c-1.1-0.4-3.1 0-4 1.6-0.9 1.6-0.2 3.3 1.3 3.9 1.2 0.5 2.4 0.1 3.3-0.8 0.3-0.2 0.2-0.6 0-0.7-0.3-0.2-0.5-0.1-0.7 0.1-0.6 0.5-1.4 0.8-2.1 0.5-1-0.4-1.4-1.6-0.8-2.6 0.6-1 1.7-1.3 2.5-1q0.4 0.2 0.7 0.5c0.3 0.3 0.7 0.2 0.9-0.2zm4.3-0.4c0.1-0.3 0-0.5-0.3-0.7 0 0-0.6-0.4-1.5-0.4q-0.4 0.1-0.8 0.2c-0.5 0.1-0.9 0.5-1 0.7q-0.3 0.4-0.3 0.9c0 0.8 0.5 1.3 1.4 1.5 0 0 0.6 0.1 0.8 0.2 0 0 0.2 0.1 0.4 0.2 0.2 0.2 0.2 0.5 0.1 0.6-0.1 0.1-0.2 0.4-0.5 0.5-0.3 0.1-0.7 0.1-0.9 0.1-0.1 0-0.7-0.2-0.8-0.3-0.4-0.3-0.8-0.1-0.9 0.2-0.2 0.3 0 0.5 0.2 0.6 0 0 0.6 0.4 1.4 0.5 0.3 0 0.6 0 1.1-0.1 0.5-0.1 0.9-0.5 1.2-0.8 0.2-0.3 0.3-0.6 0.3-1 0-0.7-0.3-1.1-0.8-1.3q-0.4-0.2-0.7-0.3c-0.2 0-0.7-0.1-0.9-0.2q-0.3-0.1-0.3-0.4-0.1-0.3 0.2-0.5c0.2-0.1 0.4-0.2 0.7-0.2q0.2 0 0.5 0c0.3 0.1 0.4 0.1 0.5 0.2 0.1 0.1 0.1 0.1 0.2 0.1 0.3 0.2 0.6 0 0.7-0.3zm-4.8 3.8h0.1-0.1q0 0 0 0z"></path><g><path class="s0" d="m106.9 43.1v-4.9h2q0 0 0.1 0 0.1 0 0.2 0 0.4 0.1 0.7 0.3 0.3 0.2 0.4 0.5 0.1 0.3 0.1 0.7 0 0.4-0.1 0.7-0.1 0.4-0.4 0.6-0.3 0.2-0.7 0.3-0.1 0-0.2 0-0.1 0-0.1 0h-1.4v1.8h-0.6zm0.6-2.4h1.3q0.1 0 0.2 0 0.1 0 0.1 0 0.3-0.1 0.4-0.2 0.2-0.2 0.2-0.4 0.1-0.2 0.1-0.4 0-0.2-0.1-0.4 0-0.2-0.2-0.3-0.1-0.2-0.4-0.2 0 0-0.1 0-0.1 0-0.2 0h-1.3v1.9z"></path><path class="s0" d="m112 43.2q-0.4 0-0.7-0.1-0.2-0.2-0.4-0.4-0.1-0.3-0.1-0.6 0-0.3 0.1-0.5 0.1-0.2 0.3-0.3 0.2-0.2 0.5-0.3 0.2 0 0.6-0.1 0.3-0.1 0.6-0.1 0.4 0 0.7-0.1l-0.3 0.2q0-0.5-0.2-0.8-0.2-0.2-0.7-0.2-0.3 0-0.6 0.1-0.2 0.2-0.3 0.5l-0.6-0.1q0.1-0.5 0.5-0.8 0.4-0.3 1-0.3 0.5 0 0.9 0.2 0.4 0.2 0.5 0.5 0.1 0.2 0.1 0.4 0 0.2 0 0.4v2.3h-0.5v-0.9l0.1 0.1q-0.2 0.5-0.6 0.7-0.3 0.2-0.9 0.2zm0.1-0.5q0.4 0 0.6-0.1 0.2-0.1 0.4-0.3 0.1-0.2 0.2-0.4 0-0.2 0-0.4 0-0.2 0-0.4l0.2 0.1q-0.3 0.1-0.5 0.1-0.3 0.1-0.6 0.1-0.2 0-0.4 0.1-0.2 0-0.3 0.1-0.2 0.1-0.2 0.2-0.1 0.1-0.1 0.3 0 0.2 0 0.3 0.1 0.1 0.3 0.2 0.2 0.1 0.4 0.1z"></path><path class="s0" d="m114.8 43.1v-3.7h0.6v0.9l-0.1-0.1q0.1-0.2 0.2-0.3 0.1-0.2 0.2-0.3 0.1-0.1 0.3-0.1 0.2-0.1 0.4-0.1 0.2 0 0.3 0v0.6q-0.1-0.1-0.4 0-0.2 0-0.4 0.1-0.2 0.2-0.3 0.3-0.1 0.2-0.1 0.4 0 0.2 0 0.5v1.8c0 0-0.7 0-0.7 0z"></path><path class="s0" d="m117 39.9v-0.5h2.5v0.5zm2.4 3.2q-0.3 0.1-0.6 0.1-0.3-0.1-0.6-0.2-0.2-0.1-0.4-0.3-0.1-0.3-0.1-0.5 0-0.2 0-0.5v-3.3h0.6v3.3q0 0.2 0 0.4 0 0.1 0.1 0.2 0.1 0.3 0.4 0.3 0.2 0 0.6 0v0.5z"></path><path class="s0" d="m123.2 43.2q-0.6 0-1-0.2-0.4-0.3-0.6-0.7-0.2-0.5-0.2-1 0-0.6 0.2-1.1 0.2-0.4 0.6-0.6 0.4-0.3 1-0.3 0.5 0 0.9 0.3 0.4 0.2 0.6 0.7 0.3 0.4 0.3 1 0 0.5-0.3 1-0.2 0.4-0.6 0.7-0.4 0.2-0.9 0.2zm0-0.6q0.5 0 0.8-0.4 0.3-0.3 0.3-0.9 0-0.6-0.3-1-0.3-0.4-0.8-0.4-0.4 0-0.7 0.2-0.2 0.1-0.3 0.4-0.2 0.4-0.2 0.8 0 0.6 0.3 1 0.3 0.3 0.9 0.3z"></path><path class="s0" d="m125.4 39.9v-0.5h2.2v0.5zm0.7 3.2v-3.9q0-0.1 0-0.3 0-0.1 0-0.3 0.1-0.1 0.2-0.2 0.1-0.2 0.3-0.2 0.1-0.1 0.3-0.1 0.1 0 0.3 0h0.5v0.5h-0.5q-0.3 0-0.4 0.1-0.1 0.2-0.1 0.4v4h-0.6z"></path></g></svg> 