<?xml version="1.0" encoding="UTF-8"?> <svg xmlns="http://www.w3.org/2000/svg" xmlns:xlink="http://www.w3.org/1999/xlink" id="Livello_1" data-name="Livello 1" viewBox="0 0 52 52"><defs><style> .cls-1 { fill: url(#Sfumatura_senza_nome_2-3); } .cls-1, .cls-2, .cls-3, .cls-4 { stroke-width: 0px; } .cls-2 { fill: url(#Sfumatura_senza_nome_2); } .cls-2, .cls-4 { fill-rule: evenodd; } .cls-3 { fill: url(#Sfumatura_senza_nome_2-4); } .cls-4 { fill: url(#Sfumatura_senza_nome_2-2); } </style><linearGradient id="Sfumatura_senza_nome_2" data-name="Sfumatura senza nome 2" x1="15.54" y1="9.31" x2="37.07" y2="9.31" gradientUnits="userSpaceOnUse"><stop offset="0" stop-color="#ad79ef"></stop><stop offset="1" stop-color="#5db1ff"></stop></linearGradient><linearGradient id="Sfumatura_senza_nome_2-2" data-name="Sfumatura senza nome 2" x1="14.93" y1="41.16" x2="37.06" y2="41.16" xlink:href="#Sfumatura_senza_nome_2"></linearGradient><linearGradient id="Sfumatura_senza_nome_2-3" data-name="Sfumatura senza nome 2" x1="19.23" y1="18.38" x2="34" y2="18.38" xlink:href="#Sfumatura_senza_nome_2"></linearGradient><linearGradient id="Sfumatura_senza_nome_2-4" data-name="Sfumatura senza nome 2" x1="14.93" y1="29.46" x2="34" y2="29.46" xlink:href="#Sfumatura_senza_nome_2"></linearGradient></defs><path class="cls-2" d="M20.58,9.06l9.75-5.66L36.15.08c.41-.23.92.06.92.53v5.77c0,.44-.23.84-.61,1.06l-19,11.18c-.96-1.07-1.71-2.19-1.87-3.31-.37-2.3,1.34-4.43,4.98-6.25Z"></path><path class="cls-4" d="M14.95,30.31c-.11,7.22-.16,9.5,6.21,13.01,8.06,4.63,13.03,7.48,14.97,8.6.41.24.92-.07.92-.54-.03-2.89-.04-4.8-.04-5.76,0-.44-.24-.84-.61-1.06-4.54-2.63-7.96-4.59-10.18-5.86-3.84-2.23-10.01-5.2-11.27-8.39Z"></path><path class="cls-1" d="M19.23,20.24s-.31.53,6.15,4.22l8-4.64c.38-.22.61-.63.61-1.06v-5.85c0-.47-.51-.77-.92-.53l-13.84,7.86Z"></path><path class="cls-3" d="M26.21,27.82c-3.84-2.23-9.99-5.32-11.26-8.58-.11,7.39-.16,9.72,6.21,13.31,5.28,3.14,9.28,5.5,11.91,7.06.41.24.93-.05.93-.53v-5.93c0-.44-.23-.84-.61-1.06-3.07-1.79-5.45-3.24-7.17-4.26Z"></path></svg> 