<?xml version="1.0" encoding="UTF-8"?> <svg xmlns="http://www.w3.org/2000/svg" id="Livello_1" data-name="Livello 1" viewBox="0 0 86 30.62"><defs><style> .cls-1 { fill: #f2f5f8; } .cls-1, .cls-2, .cls-3, .cls-4, .cls-5, .cls-6, .cls-7, .cls-8, .cls-9, .cls-10, .cls-11, .cls-12, .cls-13, .cls-14 { stroke-width: 0px; } .cls-2 { fill: #d9dbd6; } .cls-3 { fill: #d7d9d5; } .cls-4 { fill: #d7d8d3; } .cls-15 { fill: none; stroke: #fff; stroke-miterlimit: 10; } .cls-5 { fill: #2470b6; } .cls-6 { fill: #daddda; } .cls-7 { fill: #fafbfc; } .cls-8 { fill: #2570b6; } .cls-9 { fill: #d8d9d3; } .cls-10 { fill: #fff; } .cls-11 { fill: #226eb6; } .cls-12 { fill: #2771b7; } .cls-13 { fill: #e8eef3; } .cls-14 { fill: #fefefe; } </style></defs><rect class="cls-15" x=".5" y=".5" width="85" height="29.62" rx="14.77" ry="14.77"></rect><g><path class="cls-11" d="M15.25,28c-6.46-.08-12.26-5.24-12.45-12.35-.19-7.13,5.35-12.8,12.26-13.02,7.24-.23,12.96,5.4,13.13,12.4.17,7.17-5.65,13.12-12.95,12.97ZM27.55,15.32c0-6.53-5.29-11.95-11.87-12.02-6.83-.08-12.19,5.46-12.19,12.06,0,6.72,5.52,12.02,12.02,12.01,6.7-.01,12.05-5.45,12.04-12.04Z"></path><path class="cls-7" d="M27.55,15.32c.01,6.59-5.34,12.03-12.04,12.04-6.5.01-12.01-5.29-12.02-12.01,0-6.6,5.36-12.14,12.19-12.06,6.58.07,11.88,5.49,11.87,12.02ZM20.75,6.86s0,0,0,0c0-.05-.02-.11,0-.16.07-.3.13-.6.21-.89.09-.31-.2-.32-.35-.43-.17-.12-.19.09-.24.16-.22.32-.41.66-.61.99-.06.1-.17.2.02.3.17.1.2-.04.25-.13.17-.28.34-.55.52-.83-.02.35-.09.68-.16,1-.03.14-.09.27.08.38.17.11.24-.03.34-.1.27-.21.53-.43.8-.64-.14.33-.3.62-.48.89-.09.13-.08.2.04.28.14.1.19,0,.25-.09.23-.38.46-.75.7-1.13.03-.05.06-.09.03-.15-.09-.18-.47-.25-.62-.13-.26.22-.5.47-.79.65ZM15.48,6.69c-4.74,0-8.62,3.87-8.64,8.58-.02,4.83,3.82,8.69,8.56,8.74,4.95.05,8.73-3.91,8.78-8.57.05-4.88-3.95-8.81-8.71-8.74ZM25.47,13.69c.17-.02.33.01.36.2.02.21-.16.23-.32.24-.13.02-.27.03-.4.04-.13,0-.2.03-.19.18,0,.14.07.18.2.16.17-.03.34-.03.51-.05.14-.01.25.04.27.19.02.17-.08.22-.22.24-.17.02-.34.04-.51.05-.14,0-.19.05-.18.19,0,.15.08.19.21.17.18-.02.36-.03.54-.06.21-.03.38-.12.42-.35.03-.2-.16-.36-.17-.5-.01-.16.16-.35.06-.55-.05-.1-.09-.18-.04-.31.06-.14,0-.28-.22-.24-.25.04-.5.05-.75.07-.11.01-.22.02-.19.19.02.14.08.21.23.17.13-.03.27-.04.4-.05ZM6.41,12.19c.11.05.13-.06.16-.14.04-.1.03-.17-.1-.2-.21-.05-.42-.12-.63-.16-.34-.05-.57.18-.5.51.04.17.01.27-.12.38-.1.09-.12.24-.1.38.01.09.1.15-.06.23-.15.08-.07.26.11.3.25.06.51.13.76.2.11.03.19.04.21-.1.02-.12.03-.2-.12-.24-.18-.04-.37-.09-.54-.16-.12-.05-.19-.15-.13-.28.05-.12.15-.15.27-.12.17.04.35.09.52.14.14.04.19-.01.23-.14.05-.15-.04-.17-.14-.2-.17-.05-.35-.09-.52-.15-.14-.05-.2-.15-.16-.3.05-.15.16-.15.29-.12.18.05.37.1.57.15ZM9.94,5.96c0,.27.19.44.48.42.17-.01.34-.06.5-.09.09-.01.18,0,.24.09.06.11.01.2-.06.27-.13.12-.27.18-.43.05-.15-.12-.28.01-.34.09-.06.08.07.16.15.21.36.21,1.03-.14,1.06-.56.03-.31-.17-.52-.49-.5-.17.01-.34.05-.51.08-.13.03-.23,0-.26-.12-.03-.12.05-.2.15-.26.09-.05.19-.05.28.01.15.09.28-.02.33-.12.05-.11-.1-.18-.19-.22-.34-.15-.93.26-.92.64ZM24.39,11.62c-.14.07-.27.14-.39.03-.11-.1-.12-.22-.05-.37.05-.11-.03-.24-.11-.27-.12-.04-.17.09-.18.18-.04.27.06.5.24.69.16.17.37.17.58.08.28-.12.56-.25.84-.36.19-.07.14-.2.06-.26-.12-.1-.11-.2-.14-.33-.04-.24-.19-.41-.45-.44-.27-.03-.59.16-.68.4-.09.22,0,.44.28.66ZM12.07,25.72s.04,0,.05,0c.16.01.28-.06.37-.18.04-.05.01-.08-.03-.11-.12-.08-.23-.12-.39-.03-.2.11-.43-.06-.44-.31-.01-.27.11-.49.31-.67.25-.22.53-.13.59.2.03.17.18.2.27.2.14.01.08-.14.09-.23.01-.1-.04-.19-.11-.27-.46-.55-1.16-.4-1.45.3-.24.57.11,1.1.73,1.1ZM19.64,24.59s-.07,0-.09,0c-.28-.03-.46.07-.55.32-.08.23.05.62.26.77.21.15.42.14.62-.02.09-.07.15-.14.29-.15.14,0,.26-.08.15-.29-.2-.37-.36-.76-.54-1.15-.06-.13-.1-.18-.26-.11-.15.07-.12.15-.06.25.06.12.11.24.18.37ZM22.33,7.57c.15-.07.22-.03.26.07.03.07.01.15-.05.19-.09.07-.14-.04-.2-.07-.06-.03-.11-.09-.17-.13-.24-.13-.47-.07-.57.15-.1.21.05.47.33.55.08.02.12.03.15.14.04.18.21.18.34.03.09-.11.19-.21.29-.32.33-.4.21-.78-.3-.93-.11-.03-.21,0-.31.05-.04.03-.03.07,0,.09.09.06.15.19.24.17ZM5.78,11.02c0,.12.04.21.13.28.03.02.07.02.09-.02.04-.09.15-.17.07-.29-.01-.02-.03-.05-.03-.07-.01-.08,0-.14.07-.19.06-.03.12-.04.18,0,.09.06.02.13,0,.19-.02.06-.04.12-.06.18-.04.17-.07.34.09.47.12.1.26.11.38.05.16-.08.24-.24.25-.42,0-.1-.02-.17.1-.24.11-.07.15-.23-.06-.3-.14-.04-.26-.12-.39-.17-.47-.21-.81,0-.82.53ZM13.85,25.5c0-.35-.36-.61-.72-.52-.31.07-.52.39-.48.75.03.28.3.47.66.48.16,0,.28-.06.38-.17.03-.04.02-.09-.02-.11-.13-.07-.25-.09-.36.04-.01.01-.03.02-.05.02-.1.01-.18-.03-.23-.11-.05-.07-.06-.17-.02-.23.06-.09.15,0,.22.01.11.02.21.06.31.09.29.08.32.06.32-.24ZM4.83,15.36c0,.41.21.64.6.64.4,0,.62-.22.62-.62,0-.39-.24-.64-.61-.64-.39,0-.61.22-.61.62ZM18.4,24.98c-.25.02-.48.1-.58.36-.1.25.02.63.22.79.28.21.82.04.93-.29.02-.06.06-.12,0-.18-.06-.06-.12.01-.17.02-.12,0-.12.12-.16.19-.06.1-.16.15-.28.1-.09-.03-.18-.11-.17-.19,0-.11.14-.09.22-.12.08-.03.17-.05.26-.07.32-.1.35-.24.11-.48-.1-.1-.23-.14-.37-.13ZM23.35,9.93c-.02.15.06.26.16.35.1.09.18.16.21.3.03.16.12.22.27.08.11-.1.25-.17.38-.25.4-.26.42-.48.11-.83-.11-.12-.22-.21-.39-.18-.05.01-.1.03-.08.08.04.14.12.25.3.24.06,0,.12.08.12.16,0,.08-.06.14-.12.16-.07.03-.1-.05-.14-.1-.08-.1-.16-.2-.26-.28-.11-.09-.24-.12-.38-.04-.12.07-.2.16-.19.31ZM9.06,6.94c-.2.03-.35.11-.44.29-.04.07-.01.16-.17.14-.17-.02-.22.18-.1.33.17.2.34.4.5.61.09.11.15.12.26.02.11-.1.1-.16,0-.26-.11-.12-.21-.25-.31-.38-.08-.12-.12-.25.02-.36.13-.11.24-.02.32.08.1.12.2.23.29.35.08.1.13.18.27.07.13-.1.1-.18,0-.28-.12-.14-.24-.29-.37-.43-.08-.09-.18-.15-.29-.17ZM12.14,6.45c.26,0,.49-.12.6-.31.06-.1.11-.23,0-.28-.08-.04-.21.03-.25.15-.03.08-.07.15-.14.19-.16.08-.28,0-.34-.13-.08-.16.11-.12.17-.15.13-.06.27-.1.41-.14.13-.04.16-.11.09-.24-.14-.27-.36-.38-.67-.29-.32.09-.48.31-.43.62.05.37.26.59.55.59ZM7.97,9.27c.32,0,.66-.33.67-.66,0-.29-.33-.63-.63-.63-.33,0-.65.33-.66.67,0,.31.3.62.62.63ZM23.91,8.89c-.02-.17-.11-.32-.29-.41-.07-.03-.17-.01-.14-.18.03-.15-.18-.21-.31-.1-.22.18-.42.36-.65.53-.11.08-.09.13-.01.21.07.08.1.17.22.06.14-.13.29-.24.44-.35.11-.08.24-.1.34.03.1.13.03.24-.07.33-.12.11-.24.21-.38.31-.12.09-.13.15-.03.28.1.13.16.09.25,0,.14-.13.29-.24.44-.36.1-.08.17-.18.18-.34ZM25.42,16.4c0,.3.1.38.39.26.25-.1.33-.31.33-.56,0-.25-.11-.45-.35-.52-.23-.07-.49-.11-.69.08-.2.19-.21.45-.16.71.02.13.1.23.23.28.05.02.09,0,.11-.05.05-.13.03-.25-.1-.33-.01,0-.03-.02-.04-.04-.07-.1-.03-.19.03-.27.05-.07.14-.1.22-.08.13.04.06.15.06.23,0,.1-.02.2-.04.29ZM5.66,17.87c-.19,0-.28-.06-.31-.19-.03-.14.07-.2.17-.24.18-.06.36-.11.55-.14.12-.02.15-.08.12-.19-.03-.1-.05-.2-.2-.15-.2.06-.4.09-.6.15-.34.1-.44.42-.22.7.06.07.16.1.06.25-.05.07-.01.3.23.22.26-.08.52-.13.79-.2.1-.02.2-.03.14-.19-.05-.12-.07-.2-.22-.15-.18.05-.37.09-.5.13ZM25.21,11.95c-.31,0-.57.15-.64.36-.08.22.03.6.22.74.08.06.17.12.27.09.04,0,.05-.05.04-.09-.03-.1-.01-.22-.17-.24-.07,0-.11-.07-.14-.12-.08-.15,0-.28.13-.34.15-.06.14.1.16.18.05.13.08.28.12.41.04.14.11.16.24.1.24-.1.38-.33.34-.58-.06-.34-.27-.53-.58-.53ZM25.41,18.1c.36,0,.52-.23.46-.56-.01-.08-.08-.14.05-.21.06-.04.19-.24-.04-.3-.29-.07-.58-.12-.87-.18-.12-.03-.17.02-.18.13-.01.1-.04.19.12.21.18.02.35.07.53.12.13.04.24.13.2.28-.04.16-.17.17-.31.15-.18-.03-.35-.07-.53-.11-.09-.02-.17,0-.17.11,0,.09-.07.2.09.23.24.05.48.1.66.14ZM15.37,5.46c0-.11,0-.22,0-.32,0-.11-.03-.21-.03-.32,0-.14-.09-.13-.19-.13-.11,0-.18.02-.16.15.02.16.04.32.04.48,0,.16-.03.32-.23.34-.2.02-.22-.15-.24-.29-.02-.16-.04-.32-.04-.48,0-.16-.1-.14-.2-.14-.12,0-.15.06-.14.17.02.19.03.38.04.57.03.36.29.52.62.38.06-.03.13-.08.19-.08.37.05.37.06.32-.32ZM18.44,5.97c-.02-.3-.04-.54-.06-.78-.01-.19-.18-.17-.28-.17-.12,0-.06.13-.05.19.03.27.07.54.11.8.03.16,0,.3-.12.42-.05.05-.16.12-.07.19.06.06.18.09.28.03.05-.03.09-.09.13-.14.25-.32.51-.63.76-.95.05-.06.2-.13.07-.23-.11-.08-.24-.1-.33.06-.11.19-.25.35-.41.57ZM12.87,5.43c0,.34.14.55.4.63.25.07.59-.03.73-.23.06-.08.1-.18.07-.28-.02-.07-.09-.05-.14-.04-.09.03-.23,0-.22.17,0,.1-.08.16-.17.18-.11.02-.18-.05-.22-.13-.05-.08-.08-.18-.1-.28-.03-.14-.03-.28.11-.36.13-.08.21,0,.3.09.1.11.24.03.31-.04.06-.06-.04-.14-.1-.19-.18-.17-.4-.14-.61-.06-.24.09-.39.26-.37.53ZM16.95,26.33c-.02-.17-.03-.34-.05-.51-.01-.13-.07-.28.15-.29.07,0,.07-.07.07-.12,0-.07-.04-.09-.1-.09-.08,0-.17.02-.18-.1,0-.12.05-.16.16-.17.08,0,.1-.06.08-.13-.01-.05-.02-.1-.09-.12-.22-.05-.48.13-.5.37,0,.1.02.2-.13.22-.07,0-.08.06-.08.12,0,.06.01.12.09.11.18-.03.16.12.17.21.03.19.05.37.06.56,0,.14.07.16.19.15.12-.01.19-.06.15-.19ZM4.38,16.31c0,.27.11.42.33.45.11.01.25-.05.27.16,0,.08.18.05.18-.01,0-.26.19-.2.34-.22.15-.02.3-.04.46-.05.14-.01.15-.1.13-.21-.01-.1-.04-.17-.17-.14-.18.04-.37.05-.56.07-.11.01-.24.06-.25-.14,0-.05-.04-.1-.11-.08-.05.01-.11.02-.11.09,0,.08.05.19-.11.2-.12,0-.15-.07-.17-.17-.02-.08-.07-.1-.14-.07-.06.02-.12.05-.09.13ZM6.2,9.44c.02.26.03.46.07.67,0,.05.12.13.17.05.13-.19.22-.05.33.01.12.07.23.15.35.2.21.1.51-.1.5-.33,0-.1-.11-.17-.16-.11-.26.3-.4-.04-.59-.1-.1-.03-.17-.11-.08-.23.03-.04.06-.09-.01-.14-.05-.03-.11-.08-.14-.02-.11.22-.26.1-.44,0ZM17.7,4.78c.07-.2-.02-.18-.15-.16-.17.03-.2.26-.4.23-.02,0-.07.15.04.19.14.05.1.15.09.24-.02.13-.06.26-.08.4-.05.26.2.48.46.43.07-.01.08-.06.1-.11.03-.07,0-.1-.07-.12-.18-.03-.17-.15-.13-.28.03-.09.04-.19.05-.29.02-.1.02-.21.18-.14.09.04.13-.02.15-.1.02-.09-.04-.11-.1-.12-.09-.02-.19-.04-.13-.15ZM15.04,25.98c0,.07,0,.12,0,.18-.01.33.11.44.43.41.07,0,.13,0,.14-.09,0-.07,0-.13-.09-.13-.16-.01-.15-.12-.15-.24,0-.1.02-.2.02-.3,0-.13,0-.24.18-.2.05,0,.11,0,.12-.07,0-.07-.01-.13-.09-.14-.09-.02-.19-.01-.17-.15.04-.24-.1-.18-.22-.12-.13.07-.17.27-.36.28,0,0,0,.12,0,.12.3.07.16.3.17.46ZM25.77,18.99c.17-.26-.2-.37-.12-.6,0-.01-.14-.07-.16-.02-.11.26-.26.08-.39.05-.11-.02-.22-.08-.33-.11-.23-.04-.47.19-.44.41.02.11.16.16.19.1.18-.37.39-.07.58-.04.13.02.2.08.14.22-.02.05-.04.11.04.13.05.01.13.07.16-.02.06-.22.22-.12.34-.12ZM6.59,18.55c-.05-.07,0-.28-.21-.21-.45.15-.9.32-1.35.47-.14.05-.1.13-.06.21.04.08.04.2.2.15.44-.16.88-.31,1.32-.48.05-.02.13-.03.1-.14ZM5.89,14.58c.13.05.17-.05.19-.2.03-.19-.12-.14-.21-.15-.11-.02-.21-.03-.32-.04-.19-.01-.31-.09-.31-.3,0-.15-.08-.16-.19-.15-.15.01-.11.12-.09.2.03.1.05.17-.03.28-.06.08-.11.26.14.27.26,0,.52.05.82.09ZM13.86,26.22c-.06.15.07.14.16.17.11.04.16,0,.18-.12.02-.15.05-.3.08-.45.03-.14.11-.22.26-.23.08,0,.19.06.2-.1,0-.05.06-.11,0-.15-.08-.06-.18-.05-.25-.01-.08.04-.13.09-.17-.05-.02-.09-.16-.07-.24-.07-.06,0-.06.05-.07.1-.05.3-.1.6-.16.91ZM15.65,5.38s0,0,.01,0c0,.09-.01.18-.01.27,0,.17.12.26.27.19.12-.06.07-.17.07-.26.03-.26-.05-.56.37-.58.11,0,.07-.15.05-.23-.02-.1-.11-.07-.17-.05-.1.04-.17.11-.29-.02-.07-.08-.28-.09-.27.17.01.17-.02.34-.04.51ZM16.18,26.22c-.04-.19-.03-.44-.03-.69,0-.12-.05-.15-.17-.15-.11,0-.19.02-.18.16.01.29.01.58.01.87,0,.12.05.15.16.16.24.02.2-.14.2-.35ZM16.93,4.93c.03-.14-.05-.16-.16-.17-.13-.02-.18.03-.19.16-.03.28-.05.56-.1.83-.03.15.06.16.16.18.12.03.19,0,.2-.14.02-.29.06-.57.09-.86ZM7.9,9.65c-.02-.08-.08-.11-.13-.14-.22-.16-.44-.31-.66-.47-.1-.07-.15-.1-.23.02-.07.11-.11.17.03.26.23.15.45.32.68.49.05.04.11.09.17.04.06-.05.1-.13.14-.19ZM17.77,26.25c-.06-.31-.11-.62-.17-.92-.02-.11-.1-.12-.18-.09-.08.02-.18.03-.15.17.06.3.11.6.16.9.02.11.08.13.17.1.08-.02.2,0,.17-.15ZM16.86,4.54c.08.02.14,0,.15-.13.02-.16-.1-.13-.18-.15-.11-.03-.17,0-.19.12-.01.15.09.15.22.16ZM6.77,8.82c-.03-.07-.1-.14-.17-.14-.13,0-.17.12-.2.21-.03.1.09.17.16.16.11-.01.16-.13.21-.23ZM17.31,25.02c.05-.05.22.05.21-.14,0-.09-.01-.19-.15-.15-.09.03-.24,0-.2.18.01.06,0,.16.14.11ZM15.96,25.16c.08,0,.19.03.19-.12,0-.13-.05-.18-.18-.16-.09,0-.17,0-.17.14,0,.12.05.16.16.14Z"></path><path class="cls-11" d="M15.48,6.69c4.76-.07,8.76,3.86,8.71,8.74-.05,4.66-3.83,8.63-8.78,8.57-4.74-.05-8.58-3.91-8.56-8.74.02-4.71,3.9-8.58,8.64-8.58ZM7.5,15.33c-.02,4.4,3.52,7.97,7.89,8.03,4.61.06,8.13-3.64,8.15-7.96.02-4.43-3.51-8.07-8.02-8.07-4.52,0-8.03,3.65-8.02,8Z"></path><path class="cls-5" d="M20.75,6.86c.29-.18.53-.43.79-.65.15-.13.53-.05.62.13.03.06,0,.1-.03.15-.23.38-.46.75-.7,1.13-.06.1-.11.18-.25.09-.13-.09-.13-.16-.04-.28.19-.27.35-.56.48-.89-.27.21-.53.43-.8.64-.1.08-.17.22-.34.1-.17-.11-.11-.24-.08-.38.07-.32.14-.65.16-1-.17.28-.34.55-.52.83-.06.09-.08.23-.25.13-.18-.1-.08-.2-.02-.3.2-.33.39-.67.61-.99.05-.07.07-.28.24-.16.15.11.43.11.35.43-.08.29-.15.6-.21.89-.01.05,0,.1,0,.16-.01,0-.02,0-.03,0,0,0,0,.01,0,.02,0-.01.02-.02.03-.03ZM20.62,5.8h0s.01.02.01.02v-.02Z"></path><path class="cls-12" d="M25.47,13.69c-.13.02-.27.03-.4.05-.16.03-.21-.04-.23-.17-.03-.17.09-.17.19-.19.25-.03.5-.03.75-.07.22-.04.28.1.22.24-.05.13-.02.2.04.31.1.2-.07.38-.06.55,0,.15.2.3.17.5-.04.24-.21.32-.42.35-.18.02-.36.04-.54.06-.13.01-.2-.02-.21-.17,0-.15.05-.19.18-.19.17,0,.34-.03.51-.05.15-.01.25-.07.22-.24-.02-.16-.13-.2-.27-.19-.17.01-.34.02-.51.05-.14.02-.19-.02-.2-.16-.01-.15.06-.18.19-.18.13,0,.27-.02.4-.04.15-.02.34-.03.32-.24-.02-.19-.19-.22-.36-.2Z"></path><path class="cls-8" d="M6.41,12.19c-.2-.05-.39-.1-.57-.15-.12-.03-.24-.04-.29.12-.05.15.02.25.16.3.17.06.35.1.52.15.1.03.19.05.14.2-.04.13-.09.18-.23.14-.17-.05-.35-.09-.52-.14-.12-.03-.22,0-.27.12-.05.14.01.24.13.28.18.07.36.12.54.16.15.03.14.12.12.24-.03.15-.1.13-.21.1-.25-.07-.5-.14-.76-.2-.18-.05-.26-.22-.11-.3.16-.08.07-.15.06-.23-.02-.14,0-.29.1-.38.13-.11.15-.21.12-.38-.07-.34.16-.57.5-.51.21.03.42.11.63.16.13.03.13.1.1.2-.03.08-.05.19-.16.14Z"></path><path class="cls-8" d="M9.94,5.96c0-.37.58-.78.92-.64.09.04.24.11.19.22-.05.1-.18.21-.33.12-.1-.06-.19-.06-.28-.01-.1.05-.19.13-.15.26.03.12.13.15.26.12.17-.04.34-.07.51-.08.32-.02.51.18.49.5-.04.42-.71.78-1.06.56-.08-.05-.21-.13-.15-.21.06-.08.19-.22.34-.09.16.13.31.07.43-.05.07-.07.12-.16.06-.27-.05-.1-.14-.1-.24-.09-.17.03-.34.08-.5.09-.3.02-.48-.15-.48-.42Z"></path><path class="cls-12" d="M24.39,11.62c-.28-.21-.37-.43-.28-.66.1-.24.42-.43.68-.4.26.03.4.2.45.44.02.13.01.23.14.33.08.06.13.2-.06.26-.29.11-.56.24-.84.36-.21.09-.42.09-.58-.08-.18-.19-.28-.42-.24-.69.01-.09.07-.23.18-.18.09.03.17.17.11.27-.07.14-.06.26.05.37.12.11.25.04.39-.03ZM24.56,11.49c.29,0,.5-.18.49-.35,0-.16-.11-.23-.25-.23-.2,0-.47.2-.46.35,0,.17.11.23.22.24Z"></path><path class="cls-11" d="M12.07,25.72c-.62,0-.97-.53-.73-1.1.29-.7.99-.84,1.45-.3.07.08.12.16.11.27-.01.09.05.24-.09.23-.1,0-.24-.03-.27-.2-.06-.33-.34-.42-.59-.2-.2.18-.32.39-.31.67.01.26.24.43.44.31.16-.09.27-.05.39.03.04.03.06.07.03.11-.09.12-.21.2-.37.18-.02,0-.04,0-.05,0Z"></path><path class="cls-8" d="M19.64,24.59c-.06-.13-.12-.25-.18-.37-.06-.11-.09-.18.06-.25.15-.07.2-.02.26.11.17.39.34.78.54,1.15.11.21-.01.29-.15.29-.14,0-.2.08-.29.15-.2.16-.41.17-.62.02-.22-.15-.35-.54-.26-.77.09-.25.26-.35.55-.32.03,0,.05,0,.09,0ZM19.89,25.25c0-.24-.17-.48-.35-.48-.15,0-.24.08-.24.23,0,.22.2.52.36.51.15,0,.24-.1.24-.27Z"></path><path class="cls-12" d="M22.33,7.57c-.1.02-.15-.11-.24-.17-.03-.02-.03-.06,0-.09.09-.06.19-.09.31-.05.51.15.63.53.3.93-.09.11-.19.21-.29.32-.13.15-.3.15-.34-.03-.03-.11-.07-.12-.15-.14-.27-.08-.42-.34-.33-.55.1-.22.33-.28.57-.15.06.03.11.1.17.13.06.03.11.15.2.07.06-.05.08-.12.05-.19-.04-.09-.11-.14-.26-.07ZM22.37,8.02c-.09-.09-.16-.19-.31-.18-.12,0-.19.07-.17.19.02.12.12.19.23.18.1,0,.2-.06.25-.18Z"></path><path class="cls-12" d="M5.78,11.02c.02-.52.35-.74.82-.53.13.06.26.13.39.17.21.07.16.23.06.3-.12.07-.09.15-.1.24-.01.18-.09.34-.25.42-.12.06-.27.04-.38-.05-.16-.13-.14-.3-.09-.47.02-.06.04-.12.06-.18.02-.06.09-.13,0-.19-.06-.04-.12-.04-.18,0-.07.04-.09.11-.07.19,0,.03.02.05.03.07.08.12-.03.2-.07.29-.02.04-.06.04-.09.02-.09-.07-.14-.16-.13-.28ZM6.79,11.1c-.03-.12-.09-.24-.22-.23-.13,0-.13.15-.14.25-.01.11.05.2.17.2.14,0,.17-.11.2-.22Z"></path><path class="cls-12" d="M13.85,25.5c0,.3-.03.32-.32.24-.1-.03-.21-.07-.31-.09-.07-.01-.16-.1-.22-.01-.04.07-.03.16.02.23.05.08.13.12.23.11.02,0,.04,0,.05-.02.11-.13.24-.11.36-.04.05.03.05.08.02.11-.1.12-.22.18-.38.17-.36-.01-.63-.21-.66-.48-.04-.36.16-.68.48-.75.36-.08.73.18.72.52ZM13.54,25.35c0-.1-.11-.15-.23-.17-.11-.02-.23.07-.22.15.03.16.22.1.33.16.08.04.12,0,.12-.14Z"></path><path class="cls-8" d="M4.83,15.36c0-.4.22-.63.61-.62.38,0,.62.25.61.64,0,.41-.22.62-.62.62-.39,0-.6-.22-.6-.64ZM5.45,15.65c.17-.02.37-.03.38-.27.01-.28-.23-.27-.41-.28-.19,0-.39.06-.39.29,0,.24.21.25.41.27Z"></path><path class="cls-12" d="M18.4,24.98c.14,0,.27.03.37.13.25.24.22.38-.11.48-.09.03-.18.04-.26.07-.08.03-.21.01-.22.12,0,.08.08.16.17.19.12.04.21,0,.28-.1.05-.07.04-.18.16-.19.06,0,.12-.07.17-.02.05.05.02.12,0,.18-.12.33-.65.49-.93.29-.2-.15-.32-.53-.22-.79.1-.26.33-.34.58-.36ZM18.22,25.53c.09-.07.29-.02.33-.17.02-.08-.09-.16-.21-.15-.13,0-.22.07-.24.21-.01.07,0,.12.12.11Z"></path><path class="cls-5" d="M23.35,9.93c-.01-.15.07-.24.19-.31.14-.08.27-.05.38.04.1.08.18.18.26.28.04.05.06.13.14.1.06-.02.13-.08.12-.16,0-.08-.06-.16-.12-.16-.18.01-.26-.09-.3-.24-.02-.05.04-.07.08-.08.17-.04.29.06.39.18.32.35.29.56-.11.83-.13.08-.27.15-.38.25-.15.14-.24.08-.27-.08-.03-.14-.12-.21-.21-.3-.1-.09-.18-.2-.16-.35ZM24.09,10.13c-.09-.11-.15-.25-.31-.23-.1,0-.16.09-.14.19.03.12.11.21.25.18.08-.01.17-.04.2-.14Z"></path><path class="cls-8" d="M9.06,6.94c.11.02.21.08.29.17.12.14.24.29.37.43.09.1.12.18,0,.28-.14.11-.2.03-.27-.07-.09-.12-.19-.24-.29-.35-.09-.1-.19-.18-.32-.08-.13.11-.1.24-.02.36.09.13.2.26.31.38.1.1.1.17,0,.26-.11.09-.17.09-.26-.02-.16-.21-.33-.4-.5-.61-.12-.15-.07-.35.1-.33.16.02.14-.07.17-.14.09-.18.24-.26.44-.29Z"></path><path class="cls-12" d="M12.14,6.45c-.29,0-.5-.22-.55-.59-.04-.31.11-.53.43-.62.31-.09.53.02.67.29.07.13.04.2-.09.24-.14.04-.28.08-.41.14-.07.03-.25,0-.17.15.06.12.18.21.34.13.08-.04.12-.11.14-.19.04-.12.18-.19.25-.15.1.05.05.19,0,.28-.11.19-.34.31-.6.31ZM12.34,5.58c-.05-.09-.1-.17-.2-.16-.14.01-.24.08-.25.23,0,.05,0,.13.07.11.13-.04.28-.06.38-.19Z"></path><path class="cls-8" d="M7.97,9.27c-.33,0-.63-.31-.62-.63,0-.34.33-.67.66-.67.3,0,.63.34.63.63,0,.33-.35.67-.67.66ZM7.84,8.28c-.14,0-.21.11-.22.24-.01.18.31.49.49.46.13-.02.23-.1.24-.25,0-.18-.3-.46-.52-.46Z"></path><path class="cls-5" d="M23.91,8.89c0,.16-.08.26-.18.34-.15.12-.3.23-.44.36-.09.09-.15.13-.25,0-.1-.12-.09-.19.03-.28.13-.09.26-.2.38-.31.1-.09.18-.2.07-.33-.1-.12-.23-.1-.34-.03-.15.11-.3.23-.44.35-.12.11-.16.02-.22-.06-.07-.08-.09-.13.01-.21.22-.17.43-.36.65-.53.13-.11.34-.05.31.1-.03.17.07.14.14.18.18.09.27.23.29.41Z"></path><path class="cls-8" d="M25.42,16.4c.01-.1.04-.2.04-.29,0-.08.06-.19-.06-.23-.08-.02-.16,0-.22.08-.06.08-.1.17-.03.27,0,.01.02.03.04.04.13.08.15.19.1.33-.02.05-.06.06-.11.05-.13-.05-.21-.15-.23-.28-.05-.25-.05-.52.16-.71.2-.19.46-.15.69-.08.24.07.35.27.35.52,0,.26-.08.46-.33.56-.28.11-.39.04-.39-.26ZM25.63,16.17c.06.05-.07.21.11.2.12,0,.17-.09.17-.2,0-.13-.04-.26-.17-.27-.16,0-.07.16-.12.27Z"></path><path class="cls-8" d="M5.66,17.87c.14-.03.32-.07.5-.13.15-.04.18.04.22.15.06.16-.04.17-.14.19-.26.07-.53.12-.79.2-.24.08-.28-.15-.23-.22.1-.15,0-.17-.06-.25-.21-.28-.11-.6.22-.7.2-.06.4-.1.6-.15.15-.04.17.06.2.15.03.11,0,.16-.12.19-.18.04-.37.09-.55.14-.11.03-.2.1-.17.24.03.13.12.19.31.19Z"></path><path class="cls-8" d="M25.21,11.95c.31,0,.51.19.58.53.04.25-.1.48-.34.58-.13.05-.2.03-.24-.1-.04-.14-.07-.28-.12-.41-.03-.08-.01-.24-.16-.18-.13.06-.2.18-.13.34.03.05.07.11.14.12.15.01.14.14.17.24.01.04,0,.08-.04.09-.11.03-.19-.03-.27-.09-.19-.15-.29-.52-.22-.74.07-.21.34-.36.64-.36ZM25.57,12.46c-.02-.1-.09-.2-.24-.21-.1,0-.09.08-.07.13.04.12,0,.3.16.32.08.01.16-.1.15-.25Z"></path><path class="cls-12" d="M25.41,18.1c-.18-.04-.42-.1-.66-.14-.16-.03-.1-.14-.09-.23,0-.11.08-.13.17-.11.18.04.35.08.53.11.13.02.27,0,.31-.15.04-.15-.07-.24-.2-.28-.17-.05-.35-.1-.53-.12-.16-.02-.13-.11-.12-.21.01-.11.06-.16.18-.13.29.06.58.11.87.18.23.06.11.27.04.3-.13.07-.06.14-.05.21.06.34-.1.57-.46.56Z"></path><path class="cls-5" d="M15.37,5.46c.04.38.04.38-.32.32-.06,0-.13.05-.19.08-.34.14-.59-.02-.62-.38-.01-.19-.02-.38-.04-.57-.01-.11.01-.18.14-.17.1,0,.2-.02.2.14,0,.16.02.32.04.48.02.15.03.31.24.29.2-.02.23-.18.23-.34,0-.16-.02-.32-.04-.48-.02-.13.05-.15.16-.15.09,0,.18,0,.19.13,0,.11.03.21.03.32,0,.11,0,.22,0,.32Z"></path><path class="cls-8" d="M18.44,5.97c.16-.22.3-.39.41-.57.1-.17.22-.15.33-.06.13.1-.02.17-.07.23-.25.32-.5.63-.76.95-.04.05-.07.11-.13.14-.09.06-.21.02-.28-.03-.08-.07.02-.14.07-.19.13-.12.15-.25.12-.42-.04-.27-.08-.53-.11-.8,0-.07-.06-.19.05-.19.11,0,.27-.01.28.17.02.24.04.48.06.78Z"></path><path class="cls-12" d="M12.87,5.43c-.02-.28.12-.45.37-.54.21-.08.42-.11.61.06.05.05.16.13.1.19-.07.07-.21.14-.31.04-.09-.09-.17-.17-.3-.09-.14.08-.14.23-.11.36.02.1.05.19.1.28.04.08.11.15.22.13.1-.02.17-.08.17-.18,0-.17.13-.15.22-.17.05-.01.12-.03.14.04.03.1,0,.19-.07.28-.14.2-.48.31-.73.23-.26-.08-.4-.3-.4-.63Z"></path><path class="cls-8" d="M16.95,26.33c.04.13-.03.18-.15.19-.12.01-.18,0-.19-.15,0-.19-.03-.38-.06-.56-.02-.09,0-.23-.17-.21-.07.01-.08-.05-.09-.11,0-.06,0-.11.08-.12.15-.01.12-.12.13-.22.02-.24.27-.42.5-.37.07.02.07.06.09.12.02.08,0,.13-.08.13-.11,0-.17.05-.16.17,0,.13.1.1.18.1.06,0,.1.02.1.09,0,.06,0,.12-.07.12-.22,0-.16.16-.15.29.01.17.03.34.05.51Z"></path><path class="cls-8" d="M4.38,16.31c-.03-.09.03-.11.09-.13.07-.03.13,0,.14.07.02.1.05.17.17.17.16,0,.1-.12.11-.2,0-.07.06-.08.11-.09.07-.02.11.03.11.08,0,.2.13.15.25.14.19-.02.38-.03.56-.07.13-.03.16.04.17.14.02.11.01.2-.13.21-.15.01-.3.03-.46.05-.15.02-.33-.04-.34.22,0,.06-.18.09-.18.01-.02-.21-.16-.15-.27-.16-.22-.03-.33-.18-.33-.45Z"></path><path class="cls-8" d="M6.2,9.44c.18.09.33.22.44,0,.03-.06.09,0,.14.02.07.04.04.1.01.14-.09.12-.02.2.08.23.19.06.33.4.59.1.05-.06.16.01.16.11,0,.23-.29.43-.5.33-.12-.06-.23-.13-.35-.2-.11-.06-.2-.2-.33-.01-.05.08-.16,0-.17-.05-.04-.2-.05-.41-.07-.67Z"></path><path class="cls-12" d="M17.7,4.78c-.06.12.04.13.13.15.06.02.12.03.1.12-.02.09-.06.14-.15.1-.15-.06-.16.04-.18.14-.01.1-.03.2-.05.29-.04.14-.04.25.13.28.06.01.09.05.07.12-.02.05-.03.09-.1.11-.26.05-.51-.17-.46-.43.02-.13.06-.26.08-.4.02-.09.05-.2-.09-.24-.12-.04-.06-.19-.04-.19.2.03.24-.2.4-.23.14-.02.22-.03.15.16Z"></path><path class="cls-12" d="M15.04,25.98c-.02-.16.12-.39-.17-.46-.01,0,0-.12,0-.12.19-.01.22-.21.36-.28.11-.05.25-.12.22.12-.02.13.08.13.17.15.07.01.1.07.09.14,0,.07-.07.08-.12.07-.18-.03-.19.07-.18.2,0,.1-.01.2-.02.3,0,.11-.01.23.15.24.09,0,.1.07.09.13,0,.09-.07.08-.14.09-.32.03-.44-.08-.43-.41,0-.05,0-.11,0-.18Z"></path><path class="cls-8" d="M25.77,18.99c-.12,0-.28-.1-.34.12-.03.09-.1.04-.16.02-.08-.02-.06-.08-.04-.13.06-.14,0-.2-.14-.22-.19-.02-.4-.33-.58.04-.03.05-.17.01-.19-.1-.03-.23.21-.46.44-.41.11.02.22.08.33.11.13.03.29.21.39-.05.02-.05.17,0,.16.02-.08.23.28.34.12.6Z"></path><path class="cls-8" d="M6.59,18.55c.03.11-.05.12-.1.14-.44.16-.88.31-1.32.48-.16.06-.16-.07-.2-.15-.04-.08-.07-.17.06-.21.45-.15.89-.32,1.35-.47.2-.07.15.14.21.21Z"></path><path class="cls-12" d="M5.89,14.58c-.31-.04-.56-.08-.82-.09-.24,0-.2-.18-.14-.27.08-.11.07-.17.03-.28-.02-.08-.06-.19.09-.2.11,0,.2,0,.19.15,0,.21.12.28.31.3.11,0,.21.02.32.04.1.01.24-.04.21.15-.02.14-.07.25-.19.2Z"></path><path class="cls-8" d="M13.86,26.22c.05-.31.1-.61.16-.91,0-.04,0-.1.07-.1.09,0,.22-.02.24.07.04.14.08.1.17.05.08-.04.18-.05.25.01.05.04,0,.1,0,.15,0,.15-.12.09-.2.1-.15,0-.23.09-.26.23-.03.15-.06.3-.08.45-.02.12-.07.16-.18.12-.09-.03-.22-.02-.16-.17Z"></path><path class="cls-8" d="M15.65,5.38c.01-.17.05-.34.04-.51-.02-.25.19-.24.27-.17.12.12.19.05.29.02.07-.03.15-.06.17.05.02.08.06.22-.05.23-.42.02-.35.32-.37.58,0,.09.04.21-.07.26-.15.07-.27-.02-.27-.19,0-.09,0-.18.01-.27,0,0,0,0-.01,0Z"></path><path class="cls-12" d="M16.18,26.22c0,.21.04.37-.2.35-.11,0-.16-.04-.16-.16,0-.29,0-.58-.01-.87,0-.15.07-.16.18-.16.12,0,.17.03.17.15,0,.25,0,.5.03.69Z"></path><path class="cls-12" d="M16.93,4.93c-.03.29-.07.57-.09.86-.01.14-.08.17-.2.14-.1-.02-.19-.03-.16-.18.05-.28.07-.55.1-.83.01-.12.05-.17.19-.16.11.02.2.03.16.17Z"></path><path class="cls-5" d="M7.9,9.65c-.05.06-.08.14-.14.19-.06.06-.12,0-.17-.04-.23-.16-.45-.33-.68-.49-.13-.09-.1-.15-.03-.26.08-.12.13-.1.23-.02.21.16.44.31.66.47.05.03.11.06.13.14Z"></path><path class="cls-12" d="M17.77,26.25c.03.14-.09.13-.17.15-.09.02-.15,0-.17-.1-.05-.3-.1-.6-.16-.9-.03-.14.07-.14.15-.17.09-.02.16-.02.18.09.06.31.11.62.17.92Z"></path><path class="cls-12" d="M16.86,4.54c-.13,0-.24-.01-.22-.16.01-.12.08-.15.19-.12.09.02.2-.01.18.15-.01.13-.08.15-.15.13Z"></path><path class="cls-12" d="M6.77,8.82c-.05.1-.1.22-.21.23-.07,0-.19-.06-.16-.16.03-.09.07-.22.2-.21.07,0,.14.07.17.14Z"></path><path class="cls-12" d="M17.31,25.02c-.14.05-.13-.05-.14-.11-.03-.17.11-.15.2-.18.14-.04.15.07.15.15,0,.18-.16.09-.21.14Z"></path><path class="cls-12" d="M15.96,25.16c-.11.02-.16-.02-.16-.14,0-.13.08-.13.17-.14.12-.01.18.04.18.16,0,.15-.11.11-.19.12Z"></path><path class="cls-4" d="M7.5,15.33c-.01-4.35,3.5-8.01,8.02-8,4.51,0,8.04,3.64,8.02,8.07-.02,4.33-3.54,8.03-8.15,7.96-4.36-.06-7.91-3.63-7.89-8.03ZM14.18,19.83c.01.08.07.11.14.12.15.03.3.07.46.1.02.1.04.19.05.29.06.49.36.82.79.84.48.03.78-.22.9-.74.08-.34.06-.69,0-1.04.08,0,.1.08.16.11,0,.27-.02.54.01.81.06.57.41.88.91.86.46-.02.78-.37.82-.9.02-.33.03-.66-.05-.99.68-.43,1.28-.95,1.72-1.64-.17-.09-.22.04-.27.12-.23.31-.51.56-.78.83-.23.23-.38.22-.64-.05-.19-.19.08-.26.12-.39.02-.06.08-.1.1-.16.06-.12.27-.29.17-.35-.18-.11-.22.14-.3.25-.34.49-.34.49-.88.3-.06-.02-.12-.05-.18-.06-.18-.04-.24-.13-.15-.31.03-.06.11-.16,0-.2-.11-.04-.14.08-.16.14-.06.24-.22.24-.41.2-.26-.05-.53-.1-.8-.09-.13,0-.26.02-.26-.18,0-.1-.12-.13-.13-.03-.04.26-.23.22-.39.21-.24-.01-.48.01-.7.08-.25.07-.38,0-.44-.23-.02-.09-.07-.14-.15-.1-.09.04-.03.12,0,.16.15.23.07.34-.18.37-.23.03-.43.28-.65.17-.21-.1-.29-.36-.43-.55-.06-.08-.12-.21-.22-.13-.09.07.06.14.08.22.01.05.06.09.09.13.1.15.29.29.28.44,0,.17-.28.18-.4.32-.09-.03-.18-.05-.27-.08-.36-.35-.65-.78-1.07-1.07-.02.06,0,.09.02.12.21.36.55.61.79.95-.42.1-.67.36-.74.79-.01.08-.02.15.05.19.16.09.41-.02.45-.21.05-.21.15-.35.39-.33.14.01.25.08.3.23.07.22-.04.37-.19.5-.16.14-.36.24-.53.37-.24.18-.44.39-.51.71-.04.18,0,.22.17.22.45,0,.9-.01,1.36,0,.18,0,.23-.05.23-.23,0-.19-.08-.21-.23-.2-.28,0-.56,0-.88,0,.18-.27.41-.39.62-.52.3-.19.47-.44.49-.79.29.13.58.26.87.39-.14.37-.32.72-.35,1.12,0,.1-.08.25.11.22.14-.02.38.15.41-.18.03-.4.12-.78.31-1.13ZM19.79,12.02c-.38-.01-.74.04-1.08.19-1.04.43-1.66,1.41-1.54,2.64.11,1.16.77,2,1.91,2.26.96.22,1.88.08,2.62-.62.79-.74.97-2.1.45-3.13-.48-.97-1.34-1.3-2.36-1.33ZM12.45,16.17s0,.07,0,.11c0,.75,0,.74.74.75.21,0,.33-.04.29-.28,0-.06-.03-.14.03-.18.08-.05.12.05.18.09.72.53,1.51.63,2.33.3.55-.22.9-.63.98-1.23.08-.58-.2-1.01-.66-1.33-.48-.33-1.04-.43-1.61-.48-.24-.02-.47-.06-.68-.16-.22-.1-.33-.27-.3-.52.03-.23.17-.33.37-.37.56-.1,1.13-.1,1.46.43.26.42.59.41.98.41.22,0,.32-.05.29-.28-.02-.19,0-.38,0-.57q0-.76-.76-.73s-.05,0-.08,0c-.09,0-.13.03-.14.12-.01.11.06.28-.05.32-.11.04-.17-.13-.27-.19-.04-.02-.08-.05-.12-.07-.78-.38-1.57-.38-2.29.1-.7.47-.85,1.23-.24,1.89.39.42.91.56,1.45.65.4.06.81.04,1.19.22.21.09.33.24.33.48,0,.24-.14.4-.34.47-.63.23-1.34.19-1.76-.4-.26-.36-.54-.44-.93-.39-.04,0-.07,0-.11,0-.2-.03-.3.04-.28.26.02.19,0,.38,0,.57ZM11.14,14.63c0-.43,0-.87,0-1.3,0-.16.04-.22.21-.22.21,0,.49.11.62-.06.13-.16.02-.44.04-.66.02-.2-.05-.27-.26-.26-.8.01-1.59.01-2.39,0-.25,0-.3.07-.3.31.01.67,0,.68.67.67.2,0,.26.05.26.26-.01.82-.01,1.65,0,2.47,0,.2-.05.27-.26.27-.72,0-.72,0-.67.73,0,0,0,.02,0,.03,0,.11.04.17.16.17.88,0,1.75,0,2.63,0,.1,0,.13-.05.15-.15.1-.7.04-.76-.63-.78,0,0-.02,0-.03,0-.16.02-.22-.05-.22-.22,0-.42,0-.83,0-1.25ZM13.78,11.6c.19-.03.21-.16.25-.27.03-.09.06-.18.21-.15.36.09.72.13,1.09.14.1,0,.15.03.15.14,0,.05,0,.12.08.12.07,0,.09-.06.08-.11,0-.12.07-.14.18-.15.31-.03.63-.05.93-.12.21-.05.3,0,.36.2.02.08.04.22.15.18.13-.04.03-.15,0-.22-.08-.17-.05-.27.15-.32.15-.04.3-.08.43-.15.21-.1.34-.02.45.15.11.17.22.33.33.49.04.06.1.09.16.05.06-.04,0-.1-.02-.14-.11-.17-.23-.35-.34-.52-.06-.08-.2-.18-.06-.26.16-.09.28-.37.52-.18.23.18.46.37.64.62.11.16.25.3.39.45.04.04.09.07.14.03.06-.05,0-.09-.03-.13-.31-.4-.64-.78-1.03-1.1-1.14-.93-2.43-1.31-3.89-1.2-1,.07-1.9.4-2.7.98-.55.39-1.02.87-1.4,1.45.16.05.23-.02.3-.11.19-.27.42-.52.66-.75.35-.34.34-.34.76-.07.1.07.12.1.04.21-.14.2-.27.4-.4.61-.03.04-.08.09,0,.13.05.03.11,0,.14-.05.07-.1.14-.21.21-.31q.28-.42.75-.26t.35.65ZM19.82,19.95c0-.32,0-.65,0-.97,0-.09.05-.23-.11-.22-.12,0-.26-.07-.33.13-.07.19-.25.31-.47.31-.15,0-.17.07-.18.2-.01.26.18.18.3.17.23-.02.32.05.31.3-.02.36,0,.72,0,1.08,0,.19.09.2.23.2.13,0,.27.03.26-.19-.02-.33,0-.67,0-1Z"></path><polygon class="cls-7" points="20.62 5.8 20.63 5.82 20.61 5.82 20.62 5.8"></polygon><path class="cls-7" d="M20.75,6.86s-.02.02-.03.03c0,0,0-.01,0-.02.01,0,.02,0,.03,0,0,0,0,0,0,0Z"></path><path class="cls-1" d="M24.56,11.49c-.1,0-.21-.07-.22-.24,0-.15.26-.36.46-.35.14,0,.24.08.25.23.01.18-.2.35-.49.35Z"></path><path class="cls-1" d="M19.89,25.25c0,.17-.08.26-.24.27-.16,0-.36-.3-.36-.51,0-.15.09-.23.24-.23.18,0,.35.24.35.48Z"></path><path class="cls-13" d="M22.37,8.02c-.04.12-.15.17-.25.18-.11.01-.21-.06-.23-.18-.02-.12.06-.18.17-.19.14,0,.22.1.31.18Z"></path><path class="cls-13" d="M6.79,11.1c-.03.11-.06.22-.2.22-.12,0-.18-.09-.17-.2.01-.1.01-.25.14-.25.13,0,.19.11.22.23Z"></path><path class="cls-13" d="M13.54,25.35c0,.13-.04.18-.12.14-.11-.06-.3,0-.33-.16-.01-.09.1-.17.22-.15.12.02.22.07.23.17Z"></path><path class="cls-1" d="M5.45,15.65c-.2-.02-.41-.03-.41-.27,0-.23.2-.29.39-.29.18,0,.42,0,.41.28,0,.24-.21.26-.38.27Z"></path><path class="cls-13" d="M18.22,25.53c-.11.01-.13-.04-.12-.11.03-.13.11-.2.24-.21.12,0,.23.07.21.15-.04.15-.24.1-.33.17Z"></path><path class="cls-1" d="M24.09,10.13c-.03.1-.12.13-.2.14-.14.03-.22-.06-.25-.18-.02-.1.04-.18.14-.19.16-.01.22.12.31.23Z"></path><path class="cls-13" d="M12.34,5.58c-.1.13-.25.15-.38.19-.08.02-.07-.06-.07-.11,0-.16.11-.22.25-.23.1,0,.16.07.2.16Z"></path><path class="cls-1" d="M7.84,8.28c.21,0,.52.27.52.46,0,.15-.11.23-.24.25-.18.03-.51-.28-.49-.46.01-.13.08-.24.22-.24Z"></path><path class="cls-13" d="M25.63,16.17c.05-.1-.04-.27.12-.27.13,0,.17.14.17.27,0,.11-.06.19-.17.2-.19,0-.06-.15-.11-.2Z"></path><path class="cls-13" d="M25.57,12.46c.01.15-.07.26-.15.25-.16-.03-.12-.21-.16-.32-.02-.06-.03-.14.07-.13.14,0,.22.1.24.21Z"></path><path class="cls-14" d="M19.79,12.02c1.02.02,1.87.36,2.36,1.33.52,1.04.34,2.39-.45,3.13-.74.7-1.66.84-2.62.62-1.14-.26-1.8-1.1-1.91-2.26-.12-1.22.5-2.21,1.54-2.64.35-.14.71-.2,1.08-.19ZM20.97,14.61c0-.24,0-.49-.06-.73-.15-.55-.49-.8-1.05-.83-.71-.04-1.07.36-1.19.83-.13.5-.11,1,0,1.5.12.54.58.8,1.29.77.46-.02.87-.4.97-.87.05-.22.04-.45.05-.67Z"></path><path class="cls-14" d="M12.45,16.17c0-.19.01-.38,0-.57-.02-.23.08-.29.28-.26.04,0,.07,0,.11,0,.39-.05.67.03.93.39.42.59,1.13.62,1.76.4.21-.08.34-.23.34-.47,0-.24-.12-.38-.33-.48-.38-.17-.79-.15-1.19-.22-.54-.09-1.05-.23-1.45-.65-.62-.66-.46-1.42.24-1.89.72-.48,1.51-.48,2.29-.1.04.02.08.04.12.07.1.06.16.24.27.19.11-.05.04-.21.05-.32.01-.09.06-.13.14-.12.03,0,.05,0,.08,0q.76-.03.76.73c0,.19-.01.38,0,.57.02.24-.08.28-.29.28-.39,0-.72,0-.98-.41-.33-.53-.9-.53-1.46-.43-.2.04-.34.14-.37.37-.03.25.08.42.3.52.21.1.44.14.68.16.57.05,1.13.14,1.61.48.46.32.74.75.66,1.33-.08.59-.44,1.01-.98,1.23-.82.33-1.61.23-2.33-.3-.05-.04-.09-.14-.18-.09-.06.03-.04.12-.03.18.03.24-.08.28-.29.28-.74,0-.74,0-.74-.75,0-.04,0-.07,0-.11Z"></path><path class="cls-14" d="M11.14,14.63c0,.42,0,.83,0,1.25,0,.17.05.24.22.22,0,0,.02,0,.03,0,.67.01.73.08.63.78-.01.1-.05.15-.15.15-.88,0-1.75,0-2.63,0-.12,0-.16-.06-.16-.17,0,0,0-.02,0-.03-.05-.72-.05-.73.67-.73.21,0,.26-.07.26-.27,0-.82-.01-1.65,0-2.47,0-.2-.06-.26-.26-.26-.67,0-.66,0-.67-.67,0-.23.05-.31.3-.31.8.02,1.59.01,2.39,0,.2,0,.28.06.26.26-.02.22.09.5-.04.66-.13.16-.41.05-.62.06-.17,0-.22.06-.21.22,0,.43,0,.87,0,1.3Z"></path><path class="cls-14" d="M13.78,11.6q.11-.49-.35-.65t-.75.26c-.07.1-.14.21-.21.31-.03.05-.09.08-.14.05-.07-.04-.02-.09,0-.13.13-.2.26-.41.4-.61.07-.1.06-.14-.04-.21-.41-.27-.41-.27-.76.07-.24.23-.47.48-.66.75-.07.09-.14.16-.3.11.38-.58.86-1.05,1.4-1.45.81-.58,1.71-.91,2.7-.98,1.46-.11,2.75.27,3.89,1.2.4.32.73.7,1.03,1.1.03.04.09.08.03.13-.05.04-.11.01-.14-.03-.13-.15-.27-.29-.39-.45-.18-.25-.41-.43-.64-.62-.24-.19-.36.1-.52.18-.14.08,0,.18.06.26.12.17.23.34.34.52.03.04.08.1.02.14-.06.04-.12.01-.16-.05-.11-.17-.22-.33-.33-.49-.11-.17-.24-.25-.45-.15-.14.07-.29.11-.43.15-.19.05-.23.15-.15.32.03.07.13.18,0,.22-.11.04-.13-.1-.15-.18-.05-.19-.14-.24-.36-.2-.3.07-.62.09-.93.12-.1.01-.18.02-.18.15,0,.06-.01.12-.08.11-.07,0-.08-.07-.08-.12,0-.11-.06-.14-.15-.14-.37,0-.74-.05-1.09-.14-.15-.04-.17.05-.21.15-.04.11-.06.25-.25.27ZM15.6,9.31c-.44-.03-.86.05-1.27.11-.07.01-.16.02-.16.11,0,.08.08.08.14.11.82.31,1.64.29,2.46.03.07-.02.18-.04.17-.14,0-.09-.11-.1-.19-.11-.38-.06-.76-.14-1.14-.11ZM15.49,10.62c0-.08,0-.16,0-.24-.01-.12.06-.29-.09-.33-.17-.05-.37-.09-.52.03-.26.2-.45.47-.6.75-.06.12-.04.19.12.22.18.03.36.03.53.06.56.08.56.08.56-.49ZM15.65,10.58c0,.12,0,.24,0,.35-.02.19.08.24.24.22.28-.04.57-.07.85-.11.13-.02.17-.08.11-.2-.13-.26-.31-.48-.51-.69-.17-.17-.41-.18-.61-.11-.18.06-.05.27-.08.41,0,.04,0,.09,0,.13ZM14.66,10.03c0-.06-.04-.1-.08-.11-.15-.02-.3-.11-.47,0-.26.16-.52.33-.75.53-.21.18-.2.22.06.33.12.05.26.09.38.14.13.05.21.02.29-.11.15-.25.28-.5.51-.69.03-.02.04-.06.06-.08ZM17.91,10.63c0-.07-.04-.09-.08-.12-.23-.2-.48-.38-.74-.55-.16-.11-.3-.12-.48-.07-.16.05-.18.09-.07.21.19.22.37.44.49.71.03.07.07.14.16.11.22-.07.44-.15.66-.23.03-.01.05-.05.06-.06ZM12.94,10.55c.08,0,.12-.03.16-.07.25-.26.53-.49.84-.67.06-.03.11-.07.07-.15-.03-.06-.09-.1-.16-.08-.46.13-.88.35-1.27.64-.04.03-.07.07-.02.11.12.1.25.17.38.22ZM18.57,10.28s-.03-.07-.06-.08c-.38-.26-.78-.47-1.22-.61-.09-.03-.16.04-.2.12-.04.07.03.09.07.12.32.18.62.4.88.66.07.07.14.06.22.02.11-.06.22-.11.31-.22Z"></path><path class="cls-5" d="M16.52,19.41c.06.35.07.7,0,1.04-.11.52-.42.77-.9.74-.43-.03-.73-.35-.79-.84-.01-.1-.04-.19-.05-.29,0-.09,0-.18,0-.27.04-.12.07-.25.06-.38.04-.11.08-.21.12-.32.13-.19.31-.33.54-.39l.16-.02c.27,0,.51.1.7.3.02.04.04.07.06.11.01.02.02.04.03.07v.02c.04.08.06.16.09.24ZM15.98,19.35c-.18-.33-.36-.34-.59-.05-.15.38-.12.77-.05,1.16.03.16.13.3.32.31.2,0,.3-.13.34-.29.09-.38.12-.76-.02-1.13Z"></path><path class="cls-5" d="M18.37,19.3c.07.33.07.66.05.99-.04.54-.36.89-.82.9-.5.02-.85-.3-.91-.86-.03-.27,0-.54-.01-.81.06-.57.45-.85,1.13-.81.05.02.11.04.16.06.14.1.24.24.33.38.02.05.04.1.07.15ZM17.88,19.41c-.03-.2-.17-.31-.35-.31-.19,0-.29.16-.31.34-.01.08-.06.15-.03.24,0,.04,0,.07,0,.11-.02.24-.02.49.06.72.05.15.13.28.32.27.2-.01.28-.13.33-.3.07-.3.08-.6.03-.91-.01-.05-.02-.11-.04-.16Z"></path><path class="cls-14" d="M17.97,18.76c-.05-.02-.11-.04-.16-.06.11-.13.14-.23-.07-.28-.11-.03-.23-.06-.33-.11-.23-.11-.36-.02-.47.19-.13.25-.29.47-.5.66,0,0-.01-.02-.01-.02.02-.03,0-.05-.03-.07-.02-.04-.04-.07-.06-.11.25-.14.35-.4.5-.62.07-.1.06-.18-.09-.2-.22-.03-.44-.09-.66-.1-.54-.02-.44-.05-.45.43,0,.06,0,.13,0,.19-.05,0-.1.01-.16.02,0-.16,0-.32,0-.48,0-.09-.02-.15-.13-.16-.34-.02-.68.03-1.01.09-.17.03-.14.11-.08.22.07.12.2.21.19.37-.07,0-.14,0-.21,0-.14-.5-.26-.56-.72-.37-.03.01-.06.04-.1.05-.22.05-.32.14-.11.33-.09,0-.18,0-.26,0-.06-.14-.15-.08-.24-.05-.11.04-.21.09-.31.13l-.1-.05c.11-.14.39-.16.4-.32,0-.15-.18-.29-.28-.44-.03-.04-.08-.09-.09-.13-.02-.08-.18-.15-.08-.22.1-.08.17.05.22.13.14.19.22.45.43.55.23.11.42-.14.65-.17.25-.03.33-.13.18-.37-.02-.04-.08-.12,0-.16.08-.03.13.02.15.1.06.24.19.3.44.23.22-.06.46-.09.7-.08.16,0,.35.06.39-.21.02-.09.13-.06.13.03,0,.2.13.18.26.18.27,0,.54.04.8.09.2.04.35.04.41-.2.02-.07.05-.19.16-.14.12.05.04.14,0,.2-.1.18-.04.27.15.31.06.01.12.04.18.06.55.19.54.19.88-.3.08-.11.12-.36.3-.25.1.06-.11.22-.17.35-.03.06-.08.1-.1.16-.05.13-.31.2-.12.39.27.27.41.28.64.05.27-.26.55-.52.78-.83.06-.08.1-.21.27-.12-.44.7-1.04,1.21-1.72,1.64-.02-.05-.04-.1-.07-.15.07-.06.14-.11.21-.16.05-.04.06-.07.02-.13-.14-.16-.38-.2-.56-.08Z"></path><path class="cls-5" d="M12.39,18.76s.07.04.1.05c.09.11.18.21.27.32.02.09.05.18.07.27-.01.35-.19.61-.49.79-.21.13-.44.25-.62.52.32,0,.6,0,.88,0,.15,0,.23.02.23.2,0,.18-.05.23-.23.23-.45-.01-.9,0-1.36,0-.17,0-.21-.04-.17-.22.07-.32.26-.53.51-.71.17-.13.37-.23.53-.37.14-.12.26-.27.19-.5-.05-.15-.15-.22-.3-.23-.23-.02-.34.11-.39.33-.04.19-.29.3-.45.21-.07-.04-.07-.11-.05-.19.07-.43.31-.7.74-.79.09,0,.18,0,.26,0,.09.03.18.05.27.08Z"></path><path class="cls-11" d="M14.24,18.73c.07,0,.14,0,.21,0,.06.04.17-.02.2.09.03.26-.11.45-.25.63h0s-.02.03-.04.05c-.06.07-.13.12-.13.22-.02.03-.04.07-.06.1-.19.35-.28.73-.31,1.13-.03.33-.27.16-.41.18-.19.02-.11-.12-.11-.22.03-.4.21-.76.35-1.12.03-.06.07-.11.1-.17.09-.13.17-.27.27-.41h-.92l-.16-.02c.03-.15-.06-.32.06-.46.09,0,.18,0,.26,0,.31.03.62.03.93,0Z"></path><path class="cls-5" d="M19.82,19.95c0,.33-.01.67,0,1,.01.23-.13.18-.26.19-.14,0-.24,0-.23-.2.01-.36-.01-.72,0-1.08.01-.25-.08-.32-.31-.3-.12,0-.31.09-.3-.17,0-.13.02-.2.18-.2.22,0,.39-.12.47-.31.07-.2.22-.13.33-.13.16,0,.11.14.11.22,0,.32,0,.65,0,.97Z"></path><path class="cls-3" d="M16.44,19.17c.21-.19.37-.42.5-.66.11-.21.24-.3.47-.19.1.05.22.09.33.11.21.05.18.15.07.28-.68-.04-1.08.24-1.13.81-.06-.03-.08-.12-.16-.11-.03-.08-.05-.16-.08-.24Z"></path><path class="cls-7" d="M13.81,19.62c-.03.06-.07.11-.1.17-.29-.13-.58-.26-.87-.39-.02-.09-.05-.18-.07-.27.08,0,.16.02.23.06.05,0,.11.01.16.02.01.1.09.11.16.15.16.09.36.11.49.26Z"></path><path class="cls-14" d="M12.12,18.68c-.09,0-.18,0-.26,0-.24-.34-.57-.59-.79-.95-.02-.03-.03-.06-.02-.12.42.29.71.72,1.07,1.07Z"></path><path class="cls-7" d="M14.18,19.83s.04-.07.06-.1c.18.02.36.04.55.06,0,.09,0,.18,0,.27-.15-.03-.3-.07-.46-.1-.08-.01-.13-.04-.14-.12Z"></path><path class="cls-9" d="M20.97,14.61c0,.22,0,.45-.05.67-.1.47-.51.85-.97.87-.71.03-1.17-.23-1.29-.77-.11-.5-.13-1,0-1.5.12-.47.49-.88,1.19-.83.56.04.9.28,1.05.83.07.24.06.48.06.73Z"></path><path class="cls-2" d="M15.6,9.31c.38-.03.76.05,1.14.11.08.01.18.02.19.11,0,.1-.1.12-.17.14-.82.25-1.64.28-2.46-.03-.06-.02-.14-.03-.14-.11,0-.09.1-.1.16-.11.42-.07.83-.14,1.27-.11Z"></path><path class="cls-2" d="M15.49,10.62c0,.57,0,.57-.56.49-.18-.02-.36-.02-.53-.06-.16-.03-.18-.1-.12-.22.15-.29.34-.55.6-.75.15-.12.35-.08.52-.03.16.04.08.22.09.33,0,.08,0,.16,0,.24Z"></path><path class="cls-3" d="M15.65,10.58s0-.09,0-.13c.03-.14-.1-.35.08-.41.2-.07.44-.06.61.11.2.21.38.43.51.69.06.13.02.19-.11.2-.28.04-.57.07-.85.11-.16.02-.26-.02-.24-.22.01-.12,0-.23,0-.35Z"></path><path class="cls-2" d="M14.66,10.03s-.03.06-.06.08c-.23.19-.36.45-.51.69-.08.12-.16.16-.29.11-.13-.05-.26-.09-.38-.14-.26-.11-.27-.15-.06-.33.23-.2.49-.37.75-.53.17-.1.31-.01.47,0,.05,0,.08.04.08.11Z"></path><path class="cls-2" d="M17.91,10.63s-.03.05-.06.06c-.22.08-.44.16-.66.23-.09.03-.13-.05-.16-.11-.13-.26-.3-.49-.49-.71-.1-.12-.09-.17.07-.21.18-.05.32-.04.48.07.26.17.5.35.74.55.03.03.08.05.08.12Z"></path><path class="cls-2" d="M12.94,10.55c-.13-.04-.26-.12-.38-.22-.05-.04-.02-.07.02-.11.39-.29.81-.5,1.27-.64.06-.02.13.01.16.08.04.08,0,.11-.07.15-.32.18-.59.4-.84.67-.04.04-.08.08-.16.07Z"></path><path class="cls-2" d="M18.57,10.28c-.09.11-.2.16-.31.22-.08.04-.14.05-.22-.02-.26-.26-.55-.48-.88-.66-.04-.02-.11-.05-.07-.12.04-.07.11-.14.2-.12.44.14.84.35,1.22.61.03.02.04.05.06.08Z"></path><path class="cls-6" d="M15.98,19.35c.15.37.12.75.02,1.13-.04.16-.14.3-.34.29-.2,0-.3-.15-.32-.31-.07-.39-.1-.78.05-1.16.19.1.39.03.59.05Z"></path><path class="cls-3" d="M14.65,18.82c-.03-.11-.14-.06-.2-.09.01-.16-.12-.25-.19-.37-.07-.11-.09-.19.08-.22.33-.06.67-.1,1.01-.09.11,0,.13.07.13.16,0,.16,0,.32,0,.48-.23.06-.4.2-.54.39-.16-.02-.23-.13-.3-.26Z"></path><path class="cls-3" d="M15.65,18.68c0-.06,0-.13,0-.19.01-.48-.09-.45.45-.43.22,0,.44.07.66.1.15.02.16.1.09.2-.15.22-.26.48-.5.62-.19-.19-.43-.29-.7-.3Z"></path><path class="cls-3" d="M14.78,19.79c-.18-.02-.36-.04-.55-.06,0-.1.08-.15.13-.22.01-.02.02-.03.04-.05,0,0,0,0,0,0,.15-.02.29-.04.44-.05.01.13-.01.26-.06.38Z"></path><path class="cls-1" d="M14.83,19.41c-.15.02-.29.04-.44.05.14-.19.29-.38.25-.63.07.12.14.24.3.26-.04.11-.08.21-.12.32Z"></path><path class="cls-13" d="M15.98,19.35c-.2-.02-.4.05-.59-.05.23-.29.41-.28.59.05Z"></path><path class="cls-3" d="M16.4,19.09s.05.03.03.07c-.01-.02-.02-.04-.03-.07Z"></path><path class="cls-3" d="M17.91,19.56c.05.3.05.61-.03.91-.04.17-.13.29-.33.3-.2.01-.27-.12-.32-.27-.08-.23-.08-.48-.06-.72.27.02.48-.19.74-.22Z"></path><path class="cls-3" d="M17.18,19.68c-.02-.08.02-.16.03-.24.03-.19.13-.34.31-.34.18,0,.32.11.35.31-.25.04-.48.15-.7.27Z"></path><path class="cls-3" d="M17.97,18.76c.18-.12.42-.08.56.08.05.06.04.09-.02.13-.07.05-.14.11-.21.16-.09-.14-.19-.28-.33-.38Z"></path><path class="cls-14" d="M17.18,19.68c.22-.13.44-.23.7-.27.01.05.02.11.04.16-.26.03-.46.24-.74.22,0-.04,0-.07,0-.11Z"></path><path class="cls-3" d="M14.24,18.73c-.31.03-.62.03-.93,0-.21-.19-.11-.28.11-.33.03,0,.06-.03.1-.05.46-.19.59-.13.72.37Z"></path><path class="cls-3" d="M12.99,19.19c-.07-.04-.15-.07-.23-.06-.09-.11-.18-.21-.27-.32.1-.04.21-.09.31-.13.09-.04.18-.09.24.05-.12.14-.03.31-.06.46Z"></path><path class="cls-3" d="M13.81,19.62c-.13-.15-.33-.17-.49-.26-.07-.04-.15-.05-.16-.15.3,0,.59,0,.92,0-.09.14-.18.28-.27.41Z"></path><path class="cls-1" d="M14.4,19.46s-.02.03-.04.05c.01-.02.02-.03.04-.05Z"></path></g><g><path class="cls-10" d="M34.03,12.82v-6.03h.62v6.03h-.62Z"></path><path class="cls-10" d="M37.99,12.95c-.42,0-.8-.07-1.14-.21-.34-.14-.61-.34-.83-.6-.22-.26-.36-.57-.43-.93l.63-.1c.1.39.31.7.64.92.32.22.71.33,1.16.33.3,0,.56-.05.8-.14.23-.09.42-.23.55-.4.13-.17.2-.38.2-.62,0-.16-.03-.29-.08-.4-.06-.11-.13-.2-.22-.27-.09-.07-.19-.13-.3-.18-.11-.05-.21-.09-.32-.12l-1.53-.46c-.18-.05-.35-.12-.51-.2-.16-.08-.29-.18-.41-.3-.12-.12-.21-.25-.27-.41-.06-.16-.1-.33-.1-.54,0-.34.09-.64.27-.88.18-.25.42-.44.73-.57.31-.13.66-.2,1.06-.2.4,0,.76.07,1.08.21.32.14.58.35.78.61.21.26.34.58.41.94l-.64.12c-.04-.26-.14-.49-.29-.68-.15-.19-.34-.34-.58-.45-.23-.1-.49-.16-.77-.16-.27,0-.51.05-.72.14-.21.09-.38.21-.5.37-.12.16-.18.33-.18.54s.06.37.17.49c.11.12.25.22.42.29.17.07.33.13.48.17l1.18.35c.12.03.27.08.43.14.17.06.33.15.49.27.16.12.29.27.39.45.1.19.15.42.15.71s-.06.53-.17.75c-.11.22-.27.41-.46.56-.2.15-.43.27-.7.35-.27.08-.56.12-.87.12Z"></path><path class="cls-10" d="M43.5,12.95c-.6,0-1.11-.13-1.52-.4-.41-.27-.73-.64-.94-1.11-.21-.47-.32-1.02-.32-1.63s.11-1.16.32-1.63c.21-.47.52-.84.94-1.11.41-.27.92-.4,1.52-.4s1.11.13,1.52.4c.41.27.72.64.94,1.11.21.47.32,1.02.32,1.63s-.11,1.16-.32,1.63c-.21.47-.53.84-.94,1.11-.41.27-.92.4-1.52.4ZM43.5,12.36c.47,0,.87-.11,1.18-.32.32-.22.55-.51.71-.9.16-.38.24-.83.24-1.33s-.08-.94-.24-1.33c-.16-.38-.39-.68-.71-.9-.32-.21-.71-.32-1.18-.33-.47,0-.86.11-1.18.32-.31.22-.55.51-.71.9-.16.38-.24.83-.24,1.33,0,.5.07.94.23,1.32.16.38.39.68.71.9.32.22.71.33,1.18.33Z"></path><path class="cls-10" d="M48.62,12.82v-.56s2.73-2.46,2.73-2.46c.23-.21.39-.41.47-.6.08-.19.12-.39.12-.6,0-.25-.06-.47-.18-.67-.12-.2-.27-.36-.47-.48-.2-.12-.42-.18-.67-.18s-.49.06-.69.18c-.2.12-.36.28-.48.49-.12.2-.17.42-.17.66h-.63c0-.37.09-.69.26-.98.17-.29.41-.52.7-.68s.63-.25,1-.25.69.09.99.26c.29.17.52.4.69.7s.25.62.25.97c0,.25-.03.47-.09.66-.06.19-.15.37-.28.53s-.29.33-.48.5l-2.42,2.19-.1-.25h3.37v.59h-3.94Z"></path><path class="cls-10" d="M53.89,12.82l2.22-5.43h-2.79v-.6h3.45v.6l-2.21,5.43h-.66Z"></path><path class="cls-10" d="M59.74,12.95c-.37,0-.71-.09-1-.26-.3-.17-.53-.41-.71-.71-.17-.3-.26-.63-.26-1v-2.34c0-.37.09-.71.26-1,.17-.3.41-.53.71-.71.3-.17.63-.26,1-.26s.71.09,1,.26c.3.17.53.41.71.71.17.3.26.63.26,1v2.34c0,.37-.09.71-.26,1-.17.3-.41.53-.71.71-.3.17-.63.26-1,.26ZM59.74,12.35c.25,0,.47-.06.68-.18.2-.12.37-.28.49-.49.12-.2.18-.43.18-.67v-2.4c0-.25-.06-.47-.18-.68-.12-.2-.28-.37-.49-.49-.2-.12-.43-.18-.68-.18s-.47.06-.68.18c-.2.12-.37.28-.49.49-.12.2-.18.43-.18.68v2.4c0,.25.06.47.18.67.12.2.28.37.49.49.2.12.43.18.68.18Z"></path><path class="cls-10" d="M64.84,12.95c-.37,0-.71-.09-1-.26-.3-.17-.53-.41-.71-.71-.17-.3-.26-.63-.26-1v-2.34c0-.37.09-.71.26-1,.17-.3.41-.53.71-.71.3-.17.63-.26,1-.26s.71.09,1,.26c.3.17.53.41.71.71.17.3.26.63.26,1v2.34c0,.37-.09.71-.26,1-.17.3-.41.53-.71.71-.3.17-.63.26-1,.26ZM64.84,12.35c.25,0,.47-.06.68-.18.2-.12.37-.28.49-.49.12-.2.18-.43.18-.67v-2.4c0-.25-.06-.47-.18-.68-.12-.2-.28-.37-.49-.49-.2-.12-.43-.18-.68-.18s-.47.06-.68.18c-.2.12-.37.28-.49.49-.12.2-.18.43-.18.68v2.4c0,.25.06.47.18.67.12.2.28.37.49.49.2.12.43.18.68.18Z"></path><path class="cls-10" d="M69.03,12.82v-5.34l-1.13.68v-.69l1.13-.68h.62v6.03h-.62Z"></path><path class="cls-10" d="M36.49,22.99c-.6,0-1.12-.13-1.55-.4-.43-.26-.76-.63-.99-1.1-.23-.47-.35-1.02-.35-1.64s.12-1.17.35-1.64c.23-.47.56-.84.99-1.1.43-.26.95-.4,1.55-.4.7,0,1.27.17,1.74.52.46.35.79.82.98,1.4l-1.02.28c-.12-.39-.32-.7-.6-.92-.28-.22-.65-.33-1.1-.33-.4,0-.74.09-1.01.27-.27.18-.47.44-.61.76-.14.33-.2.71-.21,1.15,0,.44.07.83.2,1.15.14.33.34.58.61.76.27.18.61.27,1.01.27.45,0,.81-.11,1.1-.33.28-.22.48-.53.6-.92l1.02.28c-.19.59-.51,1.06-.98,1.4-.46.35-1.04.52-1.74.52Z"></path><path class="cls-10" d="M40.13,22.87v-6.03h3.89v.95h-2.88v1.49h2.38v.95h-2.38v1.7h2.88v.95h-3.89Z"></path><path class="cls-10" d="M45.02,22.87v-6.03h2.49c.06,0,.13,0,.23,0,.09,0,.18.01.26.03.35.05.64.17.86.35.23.18.4.4.51.68s.17.57.17.91c0,.49-.12.91-.37,1.27s-.63.57-1.14.66l-.43.04h-1.55v2.11h-1.01ZM46.03,19.82h1.44c.06,0,.12,0,.19,0,.07,0,.13-.02.19-.03.17-.04.3-.12.4-.22.1-.11.16-.23.21-.36.04-.13.06-.27.06-.39s-.02-.26-.06-.4c-.04-.14-.11-.26-.21-.36-.1-.11-.23-.18-.4-.22-.06-.02-.12-.03-.19-.03-.07,0-.13,0-.19,0h-1.44v2.03ZM48.49,22.87l-1.19-2.45,1.03-.23,1.31,2.68h-1.14Z"></path><path class="cls-10" d="M52,22.87v-5.08h-1.95v-.95h4.91v.95h-1.95v5.08h-1.01Z"></path><path class="cls-10" d="M55.71,22.87v-6.03h1.01v6.03h-1.01Z"></path><path class="cls-10" d="M57.98,22.87v-6.03h3.63v1.01h-2.62v1.5h2.12v1h-2.12v2.51h-1.01Z"></path><path class="cls-10" d="M62.44,22.87v-6.03h1.01v6.03h-1.01Z"></path><path class="cls-10" d="M64.71,22.87v-6.03h3.89v.95h-2.88v1.49h2.38v.95h-2.38v1.7h2.88v.95h-3.89Z"></path><path class="cls-10" d="M69.61,22.87v-6.03h1.92c.05,0,.15,0,.3,0,.15,0,.29.01.43.03.48.06.88.23,1.21.51.33.28.58.63.75,1.06.17.43.26.9.26,1.41s-.09.98-.26,1.41-.42.78-.75,1.06c-.33.28-.73.45-1.21.51-.14.02-.28.03-.43.03s-.25,0-.3,0h-1.92ZM70.63,21.92h.9c.08,0,.19,0,.32,0s.24-.02.35-.04c.28-.05.52-.18.7-.38.18-.2.31-.45.4-.73.09-.29.13-.59.13-.9s-.04-.63-.13-.92-.22-.53-.4-.72c-.18-.2-.41-.32-.69-.37-.1-.02-.22-.04-.35-.04-.13,0-.24,0-.32,0h-.9v4.13Z"></path></g></svg> 